<svg xmlns="http://www.w3.org/2000/svg" viewBox="0 0 273.71 38.01"><defs><style>.cls-1{fill:#2d519f;}</style></defs><title>strip</title><g id="Capa_2" data-name="Capa 2"><g id="Layer_1" data-name="Layer 1"><path class="cls-1" d="M267.24,36.57l.32.15a1.29,1.29,0,0,0,.88.08c.49-.06.5-.07.08-.1-.27,0-.47-.09-.46-.16l0-.13.28.13a2.25,2.25,0,0,0,.74.13,1.61,1.61,0,0,1,.66.13c.19.12.21.12.54,0m-9.9-2a2.16,2.16,0,0,1,.89,0c.49.08.5.08.17,0m10.13,1.91c.07-.1,0-.22-.17-.25s-.14-.07.17-.06a.89.89,0,0,1,.66.22c.16.18.32.22.85.22s.5,0,.14,0a.85.85,0,0,1-.62-.22c-.13-.21,0-.33.34-.28.13,0,.1-.34-.06-.49a2.24,2.24,0,0,1-.3-.93c0-.12-.1-.15-.54-.13s-.72-4-.66-4.15.39-.24.76-.13c.22.06.29,0,.27-.08a.12.12,0,0,0-.18-.1c-.22.1-.72.08-.72,0s.14-.08.31-.08.31-.08.31-.18.12-.21.26-.25.17-.18.07-.32-.08-1.36.16-1.52c.42-.28.23-.82-.24-.68a.47.47,0,0,1-.42,0l-.38-.2a.73.73,0,0,1-.24-.16.65.65,0,0,0-.26-.13c-.13,0-.16-.09-.06-.12s-.11,0-.42,0a2.58,2.58,0,0,1-1-.11,4.41,4.41,0,0,0-.72-.18c-.22,0-.15,0,.19,0s.46,0,.35-.08c-.29-.14.18-.1.51,0s.3.12.14,0-.08-.15.23-.11.33,0,0,0-.34-.3.25-.39c.32-.05.37,0,.23.06s0,.13.11.13.28-.09.28-.21-.08-.19-.31-.13-.31.07-.31,0,.17-.15.39-.21.31-.13.06-.21.08-.39.64-.4a3.16,3.16,0,0,0,.9-.28,2.24,2.24,0,0,1,.87-.24c.33,0,.32,0,0-.14a2.67,2.67,0,0,0-.53-.09c-.3,0-.3-.06,0-.26l.21-.14-.43.13a1.44,1.44,0,0,1-.91,0c-.42-.08-.5-.08-.66,0s-.22.13.06.12c.87,0,.94,0,.55.32-.22.17-.28.32-.12.34.42.05,0,.14-.71.13-.31,0-.55,0-.51,0s0,0-.15.05l-.66.08c-.59.09-.28.18.34.09.45-.06.46-.06.07,0a4.35,4.35,0,0,1-1.68.06c-.09,0,0-.1.23-.16s.33-.13,0-.23-.25-.1-.06-.08.32-.09.28-.4c-.07-.53.06-.8.42-.83.14,0,.25-.1.25-.2s-.07-.16-.32-.1-.29.06-.18,0c.47-.35.53-.47.23-.47s-.34,0-.34.11-.11.11-.25.11-.3-.24,0-.28c.44-.06.78-1.5.79-3.32s0-2-.68-2.23-.83-.35-.38-.3c.15,0,.26,0,.23-.08s-.16-.11-.31-.11-.11-.05.09-.12.26-.18.14-.27a1.65,1.65,0,0,1-.5-1.48c.06-.31.1-.32.68-.26.85.09.8,0-.06-.13-.43-.06-.68-.16-.75-.3-.16-.34-.28-.41-.69-.46s-.3-.06-.06-.08.26-.1.16-.18,0-.14.14-.14a.82.82,0,0,0,.53-.21,2.94,2.94,0,0,1,.34-.3c.09-.06,0-.1-.32-.1-.53,0-.86-.14-.61-.26a1.22,1.22,0,0,1,.82,0c.09,0,.17-.09.19-.29a1.13,1.13,0,0,1,.24-.58c.15-.16.1-.21-.15-.18s-.35,0-.35-.1.13-.13.45-.11.44,0,.44-.06c-.05-.41.75-1.26,1.31-1.38.14,0,.27-.13.28-.22a8.29,8.29,0,0,1,.2-.81,2.64,2.64,0,0,0-.94-2.57,3.9,3.9,0,0,0-1.62-.28,4.42,4.42,0,0,1-1.26,0c.14-.14-.07-.19-.83-.17a10.9,10.9,0,0,1-1.73-.1,9.12,9.12,0,0,0-1.3-.1,6.53,6.53,0,0,1-2-.28.63.63,0,0,0-.45-.05c-.12,0,.06.11.4.16.68.11.84.2.37.19a8.39,8.39,0,0,1-1.88-.55,1.39,1.39,0,0,1,.48,0,2.39,2.39,0,0,0,1,0c.31-.05.36-.09.14-.09-.59,0-1.57-.19-1.4-.26s-.1-.06-.6,0c-.8,0-1.32-.07-1-.16a1.41,1.41,0,0,1,.62,0c.37.09.42.09.43,0A3.57,3.57,0,0,0,258,3.9c-.65-.08-1.26-.17-1.39-.2s-.23,0-.24,0-.82.07-1.19-.09a.84.84,0,0,0-.66-.07,3.78,3.78,0,0,1-1.71-.18,1.29,1.29,0,0,0-.5-.1,8.3,8.3,0,0,1-1.22-.17,9.25,9.25,0,0,0-1.48-.18c-.25,0-.33,0-.21,0,.29-.08-.19-.09-.64,0a2.5,2.5,0,0,1-.92-.06,7.74,7.74,0,0,0-2.06-.15,5.1,5.1,0,0,1-1.13,0,9.09,9.09,0,0,0-1.13,0c-.1,0,.06,0,.34,0s.44,0,.34.06a2.35,2.35,0,0,1-.74,0,4.28,4.28,0,0,0-.77,0c-.12,0-.76,0-1.4,0a10.23,10.23,0,0,0-1.4,0,1.71,1.71,0,0,1-.59,0,10.9,10.9,0,0,0-2.34,0s-.09.05-.23,0a12.6,12.6,0,0,0-2.49,0,1.75,1.75,0,0,1-.64,0,4.76,4.76,0,0,0-1.43-.09,2.86,2.86,0,0,1-.79,0c-.5-.05-.6,0-.6.05s0,.11-.76,0a6.11,6.11,0,0,0-1.31,0,8.48,8.48,0,0,1-2.63-.15c-.1-.11-.14-.11-.48,0a1.91,1.91,0,0,1-1,.11c-.93-.06-.74,0,.24.14l.83.08-.93,0c-.51,0-1.57,0-2.38,0-1.42,0-2.12.06-1.48.13.18,0,.31,0,.31,0a1,1,0,0,1,.46-.05c.25,0,.46,0,.46.07s.1,0,.3,0c.48-.13.35,0-.21.17a1.2,1.2,0,0,1-.74.1c-.25-.08-3.15-.12-5-.08a3.67,3.67,0,0,1-.83,0s-.14,0-.32-.05-.25,0-.14.05,0,0-.22,0c-.65,0-5.15-.12-5.34-.09s-1.16,0-2.39,0l-2.24,0,.77.13.77.13-.77-.05a7.74,7.74,0,0,1-1-.12c-.15,0-.23,0-.23,0s-.26.1-.85.1h-1.47c-.34,0-1.45,0-2.47-.08s-2-.08-2.11-.05a8.72,8.72,0,0,1-1.25,0c-2-.13-7.31-.23-7.67-.15-.14,0-.18,0-.08-.05s0-.12-1.22-.18S186,2.74,186,2.8s-.16.07-.34.07-.27,0-.18-.08-.81-.14-6.27-.24c-5.86-.11-8-.12-8.32,0s-.29.06-.4,0-.26-.07-.94,0a4.62,4.62,0,0,1-1.23,0,2.42,2.42,0,0,0-1,0c-.7.13-1,.13-1.23,0a1.09,1.09,0,0,0-.46-.12c-.15,0-.2,0-.11.08s0,.08-.17.08a11.5,11.5,0,0,1-1.88-.2s-1-.05-2.14-.06a21.26,21.26,0,0,1-2.59-.1c-.39-.07-.47-.07-.63,0a2.24,2.24,0,0,1-.88,0l-1.08,0c-.22,0-.38,0-.38-.05s-.14,0-.32-.05-.24,0-.13.05a15.1,15.1,0,0,1-2.32,0c-1.42,0-3.22-.1-3.48-.14S148.43,2,147.44,2s-2.08-.06-2.47-.1c-.65-.07-.66-.08-.14-.14s.51-.07-.14-.07a2.55,2.55,0,0,0-.84.1,6.1,6.1,0,0,1-2.39-.06c-.65-.12-.76-.13-.91,0a9.84,9.84,0,0,1-2.41.08c-1.3,0-2.33,0-2.47-.08s-.23,0-.23,0-.17.05-.79,0a4.36,4.36,0,0,0-1.14,0,6.45,6.45,0,0,1-.91.06,1.25,1.25,0,0,0-.56.06,3.46,3.46,0,0,1-1,0c-.56,0-1.23,0-1.47,0s-.31,0,.18.05c1,0,0,.13-1.05.13s-1.33-.13-.4-.16c.29,0,0,0-.65,0a3.72,3.72,0,0,0-1,0c.3.09-.36.12-1.25,0a3.7,3.7,0,0,0-1,0,9.43,9.43,0,0,1-1.34.05,7.58,7.58,0,0,0-1.13,0,6.06,6.06,0,0,1-1,0,6.29,6.29,0,0,0-1.11.05,3.61,3.61,0,0,1-.85,0c-.74,0-1,0-.43.11.18,0,.31.06.31.09a7,7,0,0,1-1.69,0,2.29,2.29,0,0,0-.59,0,11.23,11.23,0,0,1-1.22,0c-.71-.06-.82-.05-.82,0s-.49.14-1.11,0a7.37,7.37,0,0,0-1.11-.09c-.37,0-.55,0-.43,0,.37-.06-.89-.18-1.73-.16l-.83,0,.68.11.68.11h-1.17a12.77,12.77,0,0,1-1.6-.1,3.33,3.33,0,0,0-1.14,0c-.4,0-.79.09-.89.11s-3,0-3.27-.07c-.11,0,0,0,.19,0S103,2,103,2,101.18,2,97.51,2C94.76,2,91,2,88.56,1.91L85,1.82l-6-.1-7.3-.12c-2.68-.06-2.83-.05-3,.06a1.1,1.1,0,0,1-.65.08c-.28,0-.48,0-.48,0a2.26,2.26,0,0,1-.68,0c-2.59,0-11,0-11.48,0-.32,0-1.13,0-1.77,0a4.27,4.27,0,0,0-1.19,0s-.14,0-.29,0a1.14,1.14,0,0,0-.73,0c-.43.1-.74.1-4.32,0-1.46,0-1.23-.09.59-.12,1.64,0,1.72,0,1.25-.12-.28-.05-1-.13-1.66-.17l-1.16-.08,1,0a5.33,5.33,0,0,0,1,0s-.89-.06-2-.07a17,17,0,0,0-2,0s-.12.05-.29.05-.22,0-.13-.08-.28-.16-.93-.12c-.25,0-.39.07-.29.12s.07.07-.09,0a6.33,6.33,0,0,0-1.65-.09,10.64,10.64,0,0,1-1.39,0L38.44,1h4.24A4,4,0,0,0,43.84.93,14,14,0,0,0,41,.91a1.82,1.82,0,0,1-.8,0,32.56,32.56,0,0,0-3.56-.1A24.8,24.8,0,0,1,33.37.69,5.93,5.93,0,0,0,32.08.63a6.08,6.08,0,0,1-1.51-.1A1.85,1.85,0,0,1,30,.36,5.41,5.41,0,0,0,28.9.3a6.6,6.6,0,0,0-1,0c.07.11-.12.11-1,0A7.87,7.87,0,0,1,25.53.1C25.28,0,25.06,0,25.05,0s-.14.06-.29,0c-.62-.08-.64.08,0,.19.77.15.78.19,0,.14s-1.13,0-.68.15c.18,0,.25.09.15.1s.09.06.43.09a2.37,2.37,0,0,1,.77.18c.13.1,0,.12-1,.16l-1.51,0c-.22,0-.37,0-.35,0s-.08.24-.38.2a2,2,0,0,0-.6,0,.53.53,0,0,1-.46,0,1.43,1.43,0,0,0-.79,0,5.61,5.61,0,0,1-1.34,0c-.74-.1-.75-.1-.39,0a4,4,0,0,0,1,.18c.68,0,1.18.24.71.29-.16,0-.28,0-.28-.06,0-.23-1.22,0-1.43.25s-.35.33-1,.26c-.33,0-.62-.12-.62-.18a3.66,3.66,0,0,0-1.12-.45,3.58,3.58,0,0,0-1.54-.28,5,5,0,0,1-1,0l-.92-.06a7.19,7.19,0,0,1-.93-.13A30.45,30.45,0,0,0,6.89.92C6.52,1,6,1,5.65,1a16.74,16.74,0,0,0-3.46.61s-.2.11-.48.14-.41.1-.31.15,0,.13-.33.18c-.44.08-.45.11,0,.23A5.61,5.61,0,0,1,2.31,3,12.47,12.47,0,0,0,3.91,4c1.09.54,2,1.15,1.89,1.32s.4.81.72.85a.58.58,0,0,1,.41.42c.06.21.18.39.27.41s0,.06-.16.1-.22.11,0,.19.24.15.13.18c-.47.13-.68.45-.41.62s.16.2-.16.26c-.5.1-.6.58-.15.75a6,6,0,0,0,1,.22c.55.08.59.12.3.32s-.21.23-.06.25a.54.54,0,0,1,.38.36.68.68,0,0,0,.32.41.46.46,0,0,1,.26.32.35.35,0,0,0,.32.26c.15,0,.17,0,0,.07-.32.09-.42.45-.14.54a.45.45,0,0,0,.46-.07c.12-.08.14-.17,0-.2s-.06-.05.12-.05.22,0,.12-.09-.06-.08.2-.07.36,0,.32.08.15.07.43.1.5.13.52.23a.13.13,0,0,0,.18.11,1.46,1.46,0,0,1,.48-.07c.18,0,.24,0,.12,0s0,.07.16.12.13.09-.67.08a5.24,5.24,0,0,0-.76.14c-.41.1-.44.12-.11.08.65-.09,1,0,.72.2a1,1,0,0,1-.61.1,1.57,1.57,0,0,0-.59,0c-.11,0,.08.09.51.1s.66.06.63.12,0,.09.48,0c.81-.11,1-.16.8-.32s-.11-.13.15,0a.46.46,0,0,1,.3.32c0,.19-.06.2-.84.19s-.85,0-.87.21a.42.42,0,0,0,.27.35c.21.09.18.17-.1.28s-.29.15,0,.17.26.08.15.15,0,.14.15.17.26.06.17.09,0,.05.17.05.27,0,.16-.11,0-.11.31-.11c.59,0,.66-.14.09-.18-.25,0-.28,0-.09-.08.46-.07.41-.51-.06-.49-.72,0-.39-.13.6-.31l1-.19.15.31c.11.22,0,.32-.25.35s-.26.07.2.14.58.16.54.34a.2.2,0,0,0,.15.26c.3,0-.07.32-.47.37s-.31,0,1.36.08c.68,0,.77,0,.72.23s-.27.25-.54.29c-.66.11-.62.15.12.12s.8.06,0,.1c-.45,0-.54.08-.5.29.09.42-.2.55-1.14.52-.78,0-.8,0-.76.31s-.06.32-.19.31-.23,0-.23,0,.18.06.43.06c.49,0,.94.2.65.28-.1,0,0,.06.15.06s.43-.12.39-.32c0,0,.09-.07.25-.06s.18,0,.08-.09,0-.08.25-.06.39.08.34.15.07.12.38.12.48,0,.48.1-.72.4-1.15.39a1.11,1.11,0,0,0-.51.09c-.1.07-.15.06-.17,0l0-.13-.93.12c-1,.13-1.19.21-.46.21.33,0,.22,0-.37.14s-.65.13-.4.12c.57,0,.8.22.32.33-.31.06-.29.08.08.08.8,0,.86.44.09.7a5.92,5.92,0,0,1-.85.23c-.11,0-.13.07,0,.13s-.46.38-.93.38c-.15,0-.19,0-.08-.09s0-.11-.2-.14a4.62,4.62,0,0,0-1.79.25s-.13.06-.31,0-.31,0-.31.08-.22.12-.54.12H7a14.34,14.34,0,0,0-1.93.42c-1.35.36-1.51.43-1.19.53s.37.11,1.08,0,.92-.12,1.17.12.1.18-.38.16a12.43,12.43,0,0,0-1.47.08,3.09,3.09,0,0,1-1,0,1.06,1.06,0,0,0-.37-.07c-.37,0-1.29.38-1.08.44s-.09.11-.43.16a1.74,1.74,0,0,0-.82.31,1.57,1.57,0,0,1-.47.33c-.36.16.33.4,1.66.58l1.68.23c.68.1.74.1,1,0s1.24-.12,1,0c-.09,0,0,.08.16.09s.32,0,.3,0S6,23.59,7,23.59s2-.11,1.48-.18a1,1,0,0,0-.41,0c-.1,0-1.81.07-3.41,0a9.71,9.71,0,0,1-1.29-.1,5.54,5.54,0,0,0-.68-.09,3.27,3.27,0,0,1-1-.25,5.37,5.37,0,0,1,.93,0,3.65,3.65,0,0,1,1.14.11,6,6,0,0,0,1.62.31c.17,0,0-.09-.31-.2L4.41,23l.74,0c.92,0,1.68,0,1.08-.09-.32,0-.28-.05.19-.05h.85c.13,0,.23,0,.23-.08a1.59,1.59,0,0,1,.7-.13c.66,0,.65,0-.15,0a2.69,2.69,0,0,0-.85.07,3.35,3.35,0,0,1-.94.15C5.32,23,5.3,23,5,22.82s-.38-.26,0-.22c.15,0,.21,0,.12-.08s0-.11.51-.11.62,0,.48.12-.06.1.25.08c.46,0,.57-.24.13-.25-.15,0-.17,0-.06-.06a3.23,3.23,0,0,1,1.39.07,1.73,1.73,0,0,0,.62.06,2.65,2.65,0,0,1,.77,0c.77,0,1-.07.46-.14-.18,0-.31,0-.31,0a1.05,1.05,0,0,1-.49.05c-.33,0-.44,0-.34-.11s0-.12-.31-.14-.42,0-.31.08,0,.11-.19.09c-.56,0-.58-.14-.06-.23a3.59,3.59,0,0,0,.77-.23c.27-.13.24-.14-.23-.14H7c-.62,0-.62,0,0-.1.37-.05.59-.12.51-.16s.06-.06.4,0,.52,0,.39-.11,0-.17.65-.24c.44-.05,1.32-.19,1.93-.3,1.08-.2,1.13-.2,1.27-.07s.15.1.19,0,.12-.15.36-.08.31.06.31,0-.13-.08-.31-.1-.29-.08-.28-.13.09-.07.18,0,.72.1.72,0a1.73,1.73,0,0,0-.69-.12c-.62,0-.63,0-.14-.07.8,0,1.45.1,1.45.28s.15.16.48.17.41,0,.31,0,0-.06.29-.08.46-.09.46-.17.14-.16.33-.17.25-.08.15-.14.12-.29.52-.24c.17,0,.24.08.15.14s0,.09.21.08c.46,0,.61.3.15.34-.15,0-.28.08-.28.14a1.05,1.05,0,0,1-.33.38,1,1,0,0,1-.9.24,4.21,4.21,0,0,1-.92-.16c-.2-.07-.29-.08-.2,0s0,.1-.12.1c-.41,0-.54.17-.24.33s.14.16,0,.19-.22.13-.13.24,0,.19-.19.19-.36,0-.36.1-.78.2-1.09.1a2,2,0,0,0-.78.09c-.31.08-.49.17-.39.2s0,.07-.14.09a.89.89,0,0,0-.43.14c-.09.1.09.12,1.36.14a10.24,10.24,0,0,1,1.46.08s-.19.05-.43,0c-.62,0-1,.1-.56.17s-.22.21-.84.21c-.18,0-.34,0-.34.05a1.42,1.42,0,0,0,.55.06c.45,0,.55,0,.52.23s-.26.26-1.08.41a8.66,8.66,0,0,1-1.25.16,3.67,3.67,0,0,0-.77.08c-.4.07-.47.13-.23.17a5.31,5.31,0,0,0,1.45-.09,7.71,7.71,0,0,0,1.11-.19s.11,0,.28,0,.2.11.1.24c-.26.35-2.29.62-4,.53-.77,0-1,0-.43.12.23,0,.17.09-.2.16s-.46.11-.16.19l.91.26c.29.09.76.21,1.05.27.68.14.67.15,0,.17s-.56,0-.13.45a1.43,1.43,0,0,0,.66.41,3.7,3.7,0,0,1,.63,0c.34,0,.35.07.05.13s-.21.32.28.38c.13,0,.05.13-.17.25A3.92,3.92,0,0,1,8.63,28l-2.05.12c-.65,0-.66.06-.16.12a2.2,2.2,0,0,1,.62.13,38.44,38.44,0,0,1-4,.27,1.11,1.11,0,0,0-.49.05A1.11,1.11,0,0,1,2,28.7a1.52,1.52,0,0,0-.65.11.7.7,0,0,1-.36.11c-.11,0-.2.12-.2.26a.58.58,0,0,1-.25.42c-.17.1-.14.15.08.12s.25,0,.17,0,.9.58,1.39.59c.17,0,.31,0,.31.08A8.81,8.81,0,0,0,5,30.85c.83.07,1.15.13,1,.18s0,.08.12.08.29,0,.29-.05a2.28,2.28,0,0,1,.69,0l1.08,0c.22,0,.37,0,.35.1s-.1.07-.18,0a2.4,2.4,0,0,0-1,0,6.6,6.6,0,0,0,1.61,0c.18-.05.24,0,.24,0s.22.06.59,0c.65,0,2.18.18,1.79.25a1.46,1.46,0,0,1-.54,0c-.23-.07-.29-.06-.29,0s-.2.13-.46.13H9.51c-.56,0-1.41.15-1.23.21s-.1,0-.37,0c-.44,0-.49,0-.31.09s.13.11-.22.06a7.36,7.36,0,0,0-2.3.08c-.14.08,0,.15.6.25a2.28,2.28,0,0,1,.8.23A13.69,13.69,0,0,0,9,32.88c.13,0,.22,0,.22,0a4.27,4.27,0,0,1-1,0q-1.37-.05.34.06c.37,0,.38,0,.06.08a7.6,7.6,0,0,1-.91,0c-.28,0-.33,0-.12,0s.31.05.21.08,0,.05.29.05.44,0,.41.12a.3.3,0,0,1-.26.11.74.74,0,0,0-.37.11c-.09.06-.07.11,0,.1a6.58,6.58,0,0,1,1.3.07,10.34,10.34,0,0,1-2.12.1A6.28,6.28,0,0,0,6,33.81h-1l.92,0a3.29,3.29,0,0,1,.85.09.14.14,0,0,0-.08.1s-.16,0-.34,0a8.36,8.36,0,0,0-1.65,0,3.05,3.05,0,0,0,.59.06,2,2,0,0,1,.57.08c.11.05-.11.07-.82,0s-.87,0-.52,0,.37.07-.06.09a5.91,5.91,0,0,1-.83,0c-.21,0-.25,0-.12.06s.09.09-.26.06a6.07,6.07,0,0,0-.89,0c-.3,0-.09,0,.71.06a12.94,12.94,0,0,0,1.57-.06,8.94,8.94,0,0,1,1.87,0A10.11,10.11,0,0,1,8,34.55c0,.07-.53.06-.76,0a4.31,4.31,0,0,0-.79,0c-.44,0-.63,0-.65.15s-.08.11-.17,0a.58.58,0,0,0-.29-.1c-.31,0-1,.15-.87.18s-.09,0-.43,0c-.9-.05-.77.17.15.26a1.83,1.83,0,0,1,.71.15c0,.05.25.06.89,0a9.47,9.47,0,0,1,1.08,0,11.21,11.21,0,0,0,2,0c.35,0,.39,0,.22,0a.89.89,0,0,0-.22.12,2.45,2.45,0,0,1-.46,0c-.25,0-.46,0-.46.08s.19.09.4.09a5.48,5.48,0,0,1,1.75.35s-.19.06-.46,0a1,1,0,0,0-.46,0,1,1,0,0,1-.46,0,1,1,0,0,0-.46,0c0,.05.21.07,1.08.08s1.08,0,1.08-.1.08-.08.25,0a12.37,12.37,0,0,0,2.24,0c1.08,0,2.24-.09,2.55-.12a9.12,9.12,0,0,1,1.16,0c.47,0,.6,0,.6-.09s-.1-.1-.23-.07a8.63,8.63,0,0,1-1.93.06,1.07,1.07,0,0,1,.46-.06,13.41,13.41,0,0,0,1.57-.08,4.81,4.81,0,0,1,.85,0c.1,0,.2,0,.2,0s.09-.06.35,0a8.47,8.47,0,0,0,1.31,0c.52,0,.86,0,.74,0s-.07.09.1.15c.35.12.2.13-.66,0a7.21,7.21,0,0,0-2.16.07,11.15,11.15,0,0,1-2.22.12,2,2,0,0,0-.56.1,4.48,4.48,0,0,1-1.1.1c-.55,0-.76,0-.76.1s-.22.11-1.42.1c-1,0-1.38,0-1.28.06a4.63,4.63,0,0,0,1.09.06c1.14,0,1.23,0,.39.23-.53.12-.54.13-.08.13l1.3-.06a3.72,3.72,0,0,1,1.13,0c.3.07.38.06.53,0a1.28,1.28,0,0,1,.74-.09c.43,0,.57,0,.56-.08s.16-.12,1.14-.11a7.69,7.69,0,0,0,1.16,0,1.48,1.48,0,0,1,.49,0c.4,0,.42,0,.12.08a5.62,5.62,0,0,1-1,.08c-.43,0-.56,0-.43.08s.18.13.18.17.25.08,1.08.05a3.64,3.64,0,0,1,1.08,0,2.07,2.07,0,0,1-.71.06,9.19,9.19,0,0,0-2.07.23,1.63,1.63,0,0,0,.48,0c.38,0,.41,0,.15.11s-.2.11.14.14a1.08,1.08,0,0,0,.46,0,1.11,1.11,0,0,1,.46,0c.25,0,.46,0,.46-.07s.17-.07.4-.07c.68,0,3.3-.11,3.3-.16a1.56,1.56,0,0,1,.54,0c.46,0,.48,0,.14-.05-.5-.12,0-.18,1.2-.16.52,0,.8,0,.8-.07s-.68-.11-3.08-.11c-.83,0-1.14,0-1-.06a2.5,2.5,0,0,1,.66,0c.28,0,.37,0,.23,0s0-.05.59,0a4.62,4.62,0,0,0,.78,0c-.06-.1.08-.14.3-.08a4.68,4.68,0,0,0,1.39,0,6,6,0,0,1,1.14,0A11.79,11.79,0,0,0,29,36.27a1.49,1.49,0,0,1,.52,0c.15,0,.93,0,1.76,0l2.33-.09c.65,0,.81-.05.71-.14s-.05-.11.37,0,.45.07.14,0a2.89,2.89,0,0,0-1-.1c-.67,0-.66,0,.08-.05.42,0,1.31-.08,2-.1l1.19,0-.7.1-.69.1h.66c.4,0,.66,0,.66.1s.23.09,1.28.06a8.28,8.28,0,0,1,1.5,0,.57.57,0,0,0,.42,0c.13-.06.07-.08-.18-.05s-.31,0,0,0a1.57,1.57,0,0,1,.85,0c.51.13.59.22.15.17-.18,0-.31,0-.31,0a1,1,0,0,1-.46.05c-1,0-.43.15.77.23a4.9,4.9,0,0,1,1.23.17s.2.07.45.05a3.51,3.51,0,0,1,.85.07c.36.08.29.09-.76,0a7,7,0,0,0-1.15,0,2.19,2.19,0,0,0,.91.2,1.48,1.48,0,0,1,.62-.06c.44,0,.62,0,.61.15s.15.14.92.15a3.71,3.71,0,0,1,.93.06,1.42,1.42,0,0,1-.56.05c-1,0-.65.16.37.17s.93,0,.28.07-.89.12-.25.18c.25,0,.46.08.46.12a8.09,8.09,0,0,0,2.47.09c1.17,0,1.56-.11,1.32-.23s.16-.07,1.05-.06c.65,0,1.34,0,1.5,0s1-.05,1.84-.06a22.62,22.62,0,0,0,4.34-.18c.36-.14,1.06-.18,1.06-.06s-.16.08-.46.06a1.14,1.14,0,0,0-.46,0c0,.09.58.13,1.63.1.71,0,1-.06,1.06-.13s-.53-.15-1.09-.05c-.29.05-.37,0-.37-.06s.27-.14.6-.17.53-.09.43-.14,0-.08.16-.08a1.21,1.21,0,0,0,.53-.11,6.7,6.7,0,0,1,2.33-.14c.46,0,.55,0,.4,0s0-.08.31-.08.49,0,.49-.11.2-.11.94-.1a4.49,4.49,0,0,1,1.11.09,3,3,0,0,0,.83.09c.56,0,.59,0,.2-.05s-.31-.06.31-.06H69.6a2.34,2.34,0,0,0,.77-.14,2.73,2.73,0,0,1,1.5-.17,2.57,2.57,0,0,0,.74,0,1.58,1.58,0,0,1,.62,0l.94.15c.28,0,1.19.1,2,.12,1.26,0,1.51,0,1.51-.06s.09-.07.23,0a11.12,11.12,0,0,0,1.53.06c.71,0,1.69,0,2.16,0s.63.05.32.05c-.49,0-.48,0,.08.12a22.29,22.29,0,0,0,3.84.13c1.76,0,3.41,0,3.62,0,.55-.08,2.07-.11,5.18-.11,3.36,0,5.21,1,5.85.93.29,0,1.3,0,2.22,0s2.25-.24,2.92-.26l3.09,0c1,0,1.93,0,2,0s.68,0,1.3,0c.93,0,1.06,0,.77-.09s-.22-.09.25-.14.8-.06,1.06-.06c2.16,0,2.93-.06,3.21-.09a32.59,32.59,0,0,1,4.32,0,2.89,2.89,0,0,0,.77.08,4.39,4.39,0,0,1,.81.06,30.1,30.1,0,0,0,4,0c1,0,2.27,0,2.78,0l2.59.07c1.6,0,2.13.07,1.84.13s-1.37.06-2.18.06a1.75,1.75,0,0,0-.56,0,29.6,29.6,0,0,0,3.72,0s.25,0,.53.09a3.8,3.8,0,0,0,.78.16c.14,0,.09,0-.11-.08s-.21-.09.68-.08,1.06,0,1.09.12-.14.11-.69.11a5.17,5.17,0,0,0-1,.06c-.2.06-.06.06,2,0a1.8,1.8,0,0,1,.68,0,13.72,13.72,0,0,1-1.79.11c-2,.06-2.5.11-2.4.24s.36.09,1.13.09h4.29c1.79,0,4.06,0,5.08,0l2.93-.06,2.64,0c.86,0,1.82,0,2.16-.06s1.71-.06,3.07-.08a24,24,0,0,0,2.72-.12,3.6,3.6,0,0,1,.79-.08q.52,0-.22-.06a3.19,3.19,0,0,0-1,0c-.21.06-.37,0-.32-.07a5.89,5.89,0,0,0-.89,0c-.49,0-.84,0-.76.06s-3.15,0-3.45-.05.06-.09.8-.1a2.18,2.18,0,0,0,.65,0,2.67,2.67,0,0,0-.69,0c-.68,0-.68,0-.08-.06s.55-.09.16-.14-.86-.06-1.39-.07h-.93l.77-.1c.46-.06.56-.09.23-.08a5.44,5.44,0,0,1-1,0,2.68,2.68,0,0,0-.62,0c-.12,0-.2,0-.2,0s.22-.05.62,0c.8.05,2.08,0,1.54-.07-.25,0-.17-.05.26-.07s.58,0,.48,0,0,.09.21.12.29,0,.12,0-.06-.06.56,0a4.82,4.82,0,0,0,1,0,3.64,3.64,0,0,1,.85,0,6.47,6.47,0,0,0,1,0c.2,0,1.1-.06,2-.06l2.71,0c.74,0,1,0,.83,0s0,0,.62,0a12.16,12.16,0,0,1,1.25,0c.26,0,.42,0,.42-.07s-.14-.1-.54-.08-.48,0-.14,0a1.44,1.44,0,0,1,.77,0c.2,0,.62.12.92.17.46.07.54.07.46,0a12.85,12.85,0,0,0,4.59.89c.93,0,1.38,0,1.14,0s-.31-.06.09-.12a38.21,38.21,0,0,1,4.29.09c.38.06,2.81.07,3.83,0,.37,0,.68-.08.68-.13s.05-.08.29,0a2.69,2.69,0,0,0,1,0,8.22,8.22,0,0,1,1.79-.06,4.65,4.65,0,0,0,.92,0,6.29,6.29,0,0,0,.93,0,1.61,1.61,0,0,1,.48,0c.28,0,.41,0,.32.08s0,.06.29,0a1.09,1.09,0,0,0,.45-.08,5.63,5.63,0,0,1,1.45,0c.25,0,.37,0,.32,0s.25-.07.74-.07,1.05,0,1.36,0a3.59,3.59,0,0,1,1,.07c.25.06.35.07.25,0s.25-.07,1.45-.06c.89,0,2.19,0,2.87,0,1.23,0,1.23,0-.77-.09-.56,0-.46-.32.13-.38s.91,0,.51,0c-.21,0-.28.08-.17.08s0,0-.16.08-.28.08.09.08a2,2,0,0,0,.63-.08c.09,0,0-.08-.18-.09s-.09,0,.25-.08a3.4,3.4,0,0,1,.9,0,7.35,7.35,0,0,0,.92.06c.62,0,.62,0,0,.05s-.51,0-.09.05a1,1,0,0,1,.62.13,1,1,0,0,0,.55.13c.25,0,.46,0,.46.07s.1.07.23.07h.85c.4,0,.62,0,.62-.11s-.21-.11-.77-.12-.78,0-.78-.1,0-.08-.26,0-.26.1-.42,0-.08-.13,0-.13l.74,0a1.4,1.4,0,0,1,.54,0s.14.05.32.05.26,0,.19,0a7.67,7.67,0,0,1,1.22,0,4.62,4.62,0,0,1,1.36.11s-.1.07-.23.07-.57,0-1,0c-.59,0-.65,0-.31.09s.32.05,0,.05-.39,0-.39,0a8.71,8.71,0,0,0,1.85,0c.24,0,1.85,0,3.61,0s3.18,0,3.18,0a5.29,5.29,0,0,1,1-.06,6.82,6.82,0,0,1,1.51.1,3.74,3.74,0,0,0,.89.08c.2,0,.34,0,.34.05s.11.09.28.09c.52,0,.68-.1.33-.22s-.24-.11,0-.11a1.09,1.09,0,0,1,.51.12,2.28,2.28,0,0,0,.83.13l1.73.06a10.74,10.74,0,0,0,1.54,0,25.19,25.19,0,0,1,3.39,0c2.19.08,11,.45,11.3.39.13,0,.05,0-.16,0s-.34.06,0,0a1.41,1.41,0,0,1,.77,0,1.87,1.87,0,0,0,1.05,0c.68-.12.7-.11.56,0s0,0,.76,0c1.11,0,1.86.1,1.16,0-.39,0-.38,0,0,0a3.43,3.43,0,0,0,.65,0,.86.86,0,0,1,.42,0c.16,0,.12,0-.1,0-.54,0-.5,0,.05,0a4.57,4.57,0,0,0,.95,0,1.08,1.08,0,0,1,.67,0,1.3,1.3,0,0,0,.49,0c.19,0,.82,0,1.44,0s1.43,0,1.87,0,.94,0,1.16,0,.39.07.39,0,.11,0,.24,0,.23,0,.22,0a3.12,3.12,0,0,0,.54,0c.31,0,.48,0,.39,0s0,0,.16,0,.31,0,.32,0,.13.07.41,0a4.61,4.61,0,0,1,1.74,0s.15.06.3,0,.28-.08.3,0a5.82,5.82,0,0,0,2.33,0c1-.12,1.83-.09,1.6,0s.1,0,.51,0c.56,0,.59.05.2,0s-.26,0,.39,0,.77.06.53,0-.16,0,.24,0,.37,0-.21,0h-1.94c-.88,0-.42,0,.6,0,.49,0,1,0,1.13,0a1.67,1.67,0,0,1,.89,0c.56.12.63.1.46,0s-.05,0,.12,0a.9.9,0,0,1,.66,0c.34.11.31-1,.52-1.12s.08,1.21-.38,1.12a2,2,0,0,0-.53,0c.19-.1-.45-.11-.68,0s-.28.05-.65,0-.45,0-.45,0,.09-.09.48,0,.47.15.31,0,0,0,.3,0,.55.08.66,0m9.91-12.63a3.09,3.09,0,0,1-1.23.13c-.65,0-1,0-1-.09s.13-.07.28-.05c.46.06,1.23,0,1.06-.1s.05-.08.48-.07c.74,0,.74,0,.36.19m-1,.6c-.34,0-.56,0-.48-.06a5.19,5.19,0,0,1,1.11.08,4.89,4.89,0,0,1-.63,0m.38,10.54c-.11,0,0-.06.14-.06s.32,0,.32.06-.06.06-.14.05m-1-10.82s0,0-.12,0h-.62a1,1,0,0,1-.46-.06s.22,0,.49,0,.44,0,.32,0,0-.07.36-.06l.68,0c.08,0,0,0-.26.05a1,1,0,0,0-.39.08m-.43-13.79c-.18,0-.31,0-.31-.1s0-.09.3,0,.38.12,0,.11m-.84-.85a1.81,1.81,0,0,0-.21.45.44.44,0,0,1-.4.29c-.18,0-.32,0-.32.05a1.15,1.15,0,0,1-.16.25c-.08.1,0,.18.12.18s.26,0,.26.06-.13,0-.31,0-.31,0-.31,0,.13.06.29.06.28.08.26.17-.11.17-.93.13c-.62,0-.87,0-.8,0s-.08.08-.29.09-.4,0-.43-.11,0-.16.09-.3-.05-.11-.43-.1-.54,0-.54,0,.13,0,.28,0a1,1,0,0,0,.45,0c.12-.05,0-.07-.26-.05-.59,0-.56,0,.07-.13.48-.08.47-.09-.21-.05-.49,0-.66,0-.51,0s.07-.06-.11-.06-.32-.06-.32-.14.62-.19.66,0,.09.06.16,0,0-.11-.17-.17-.19-.14,0-.18.14-.11,0-.15-.14-.07.48-.07a2.91,2.91,0,0,0,.8-.05,1.65,1.65,0,0,0-.62,0c-.46,0-.62,0-.62-.07s0-.09-.45,0-.45.1-.46-.05-.15-.14-.32-.13-.31,0-.31-.06-.14-.07-.32-.06-.24.1-.13.2.09.16-.17.15c-.42,0-.42,0-.14-.33a1,1,0,0,1,.52-.25c.21,0,.18,0-.06-.08-.7-.08,0-.17,1.3-.16a14.05,14.05,0,0,1,1.87.12c.58.1.6.1.53-.09s0-.39.32-.39c.17,0,.32.1.34.21s.06.19.28.07.25-.12.28.07.64.38.65.2.12-.09.28-.09.6.39.36.47a.71.71,0,0,0-.26.2m-1,2c-.18,0-.31,0-.31-.06s.13,0,.31,0a.88.88,0,0,1,.31.06.88.88,0,0,1-.31,0M265,23.77a.63.63,0,0,0-.57-.06q-.29.08-.29,0a2.23,2.23,0,0,0-.76-.08c-.52,0-.71,0-.6.07s0,.09-.17.11-.32,0-.32-.06-.13-.08-.29-.06-.28,0-.26-.07-.07-.15-.2-.21-.11-.09,0-.06a8.69,8.69,0,0,0,1.34.19,1.63,1.63,0,0,0-.45-.12c-.4-.08-.35-.09.36-.12a6.78,6.78,0,0,1,1.14,0c.24,0,.2.05-.14,0s-.48,0-.48.08.36.15,1,0a1.17,1.17,0,0,1,.77,0c.16.05.2.12.09.15s-.06.05.12.06.22,0,.12.09-.23.07-.46,0m0-10.65a5.33,5.33,0,0,0-.93,0c-.33,0-.42,0-.42-.06s.14-.13.31-.15.31,0,.31,0a1.8,1.8,0,0,0,.61.09,3.19,3.19,0,0,1,.62.07,2.1,2.1,0,0,1-.51,0m-.83,11.77a3.75,3.75,0,0,1-.65-.09c-.25-.06-.26-.09,0-.08s.34,0,.34.06.13,0,.31,0,.31,0,.31,0-.12.06-.28.06m-.52-11.53c-.19,0-.31,0-.31-.06s.12-.05.31-.05.31,0,.31.06-.12.05-.31.05m-.81,11.73c-.25,0-.18,0,.19,0s.5,0,.4,0a3.16,3.16,0,0,1-.59,0m.11-4.55a1.31,1.31,0,0,1-.46,0c-.1,0,0-.06.28-.05.56,0,.63,0,.18.08m0,1.65c-.17,0-.31,0-.31-.08s.14-.1.31-.11.31,0,.31.08-.14.11-.31.11m-.4,2.75c-.22,0-.24-.07-.06-.07.4,0,.78.08.58.11a1.93,1.93,0,0,1-.52,0m.39-12.1c-.34,0-.48-.11-.18-.14s.31,0,.31.05-.05.09-.12.09m-.8,7.12a.94.94,0,0,0-.41,0,1.19,1.19,0,0,1-.43,0c-.09,0,.11-.07.45-.08a1.35,1.35,0,0,0,.65-.12c0-.05.13,0,.25.07s-.22.35-.51.21m.34.25a2.67,2.67,0,0,1-.65,0c-.31-.06.16-.2.65-.19s.62,0,0,.15m0,.6c-.3,0-.39,0-.27-.06s.72-.1.72,0a1.09,1.09,0,0,1-.45.08m0-10.6c-.17,0-.31,0-.31-.09s.14-.08.31-.08.31,0,.31.09-.14.08-.31.08m-1.11,10.92c-.19,0,0,0,.57,0s.73,0,.31.06a5.33,5.33,0,0,1-.88,0m1,.33c-.17,0-.31-.05-.31-.12s.14-.11.31-.11.31.05.31.12-.14.11-.31.11m-.69,1c-1,0-1-.12,0-.12.59,0,.85,0,.76.07a3,3,0,0,1-.79.05m.06.21a2,2,0,0,1-.62-.09c0-.06.37-.06,1,0s.31.13-.43.09m.31-.49c-.19,0-.31-.06-.31-.09s.12-.05.31-.05.31,0,.31.09-.13.07-.31.05m.08,1a1.16,1.16,0,0,0-.48,0c-.19,0-.23,0-.1,0,.33-.1.78-.07.76,0s-.09.07-.18,0m-.85-17.41c-.26-.13-.14-.16.49-.1.43,0,.45.06.12.13s-.42.07-.62,0m0,13.92a3,3,0,0,1-.63-.07c-.14,0,0-.05.26,0a3.93,3.93,0,0,0,.83,0c.26,0,.3,0,.15,0a1.72,1.72,0,0,1-.62.09m.42,5c-.17,0-.31-.07-.31-.12s.14-.08.31-.08.31.06.31.12-.14.1-.31.08m-.37.29c-.25,0-.18,0,.19,0s.5,0,.4,0a3.27,3.27,0,0,1-.59,0m.08-15c-.25,0-.46-.05-.46-.12a.61.61,0,0,0,0-.15.79.79,0,0,1,.34-.06q.35,0,.15.1c-.12.07-.06.12.12.12s.32,0,.32.06a1.06,1.06,0,0,1-.46.05m0,12.87c-.18,0-.31,0-.31-.06s.13,0,.31,0a.92.92,0,0,1,.31.06.84.84,0,0,1-.31,0m-.3-.67a.87.87,0,0,1-.31,0,.88.88,0,0,1,.31-.06c.18,0,.31,0,.31,0s-.13.06-.31.06m-.54,2.28a1.14,1.14,0,0,1-.42-.11,1,1,0,0,1,.42,0c.23,0,.42.07.42.11s-.1.07-.42,0m-.4-13.21a1.25,1.25,0,0,1-.32-.06c-.11,0,0-.06.14-.05s.32,0,.32.06-.06.06-.14.05m-3,13.55c-.83,0-.86,0-.38-.07a4.63,4.63,0,0,1,1,0q1,.08-.65.12m.2-20.47c-.59,0-1.49-.21-1.23-.26a11.77,11.77,0,0,1,1.76.26,3.31,3.31,0,0,1-.52,0m-.67.34c-.14,0-.26,0-.26-.09s.12-.08.26-.08.26,0,.26.09-.12.08-.26.08M255.78,9c-.31,0-.51-.06-.46-.11s0-.1-.23-.13-.32-.13-.32-.24,0-.2.62-.1c.34.06.55.12.46.15s0,.1.14.18c.43.2.38.27-.21.24m-.14,17.26a2.62,2.62,0,0,1-.46,0,2.53,2.53,0,0,1,.46,0,1.07,1.07,0,0,1,.46,0,1.11,1.11,0,0,1-.46,0m-.17,1.45c-.18,0-.31,0-.31-.1s0-.09.3,0,.38.12,0,.11m-.35,10.22a1,1,0,0,1-.32,0c-.11,0,0,0,.14,0s.32,0,.32,0-.06,0-.14,0m-.57-10.4a.85.85,0,0,1-.31,0,.92.92,0,0,1,.31-.06c.18,0,.31,0,.31,0s-.13.06-.31.06m-.27-3.7c-.18,0-.31,0-.31-.06s.12-.05.31-.05.31,0,.31.06-.12.05-.31.05m-.3-.39c-.34-.1-.39-.06-.31.24s0,.2-.41.17c-.62,0-1,.17-.55.28a7.42,7.42,0,0,0,1,.11c.53,0,.49,0-.19,0-.46,0-.79,0-.71,0s-.2.11-.6.17-.76.1-.76,0-.06-.06-.31,0-.31.06-.34,0a.2.2,0,0,1,0-.16s-.19-.1-.48-.16-.38-.11-.17-.1.36,0,.35.06.13,0,.31,0,.23-.05.12-.09c-.29-.09.47-.21,1.05-.17.43,0,.45,0,.08,0s-.37-.08-.06-.19.31-.08.22,0,.07.12.59.06.48-.23.06-.24c-.19,0-.13,0,.15-.09.52-.09,1.18-.06,1.18.06s-.12,0-.3,0m.19.72-.45-.11c-.3-.08-.29-.09,0-.09s.42.05.45.11,0,.1,0,.09m-.2.34c-.17,0-.31,0-.31.08s.18.09.38.09.23,0-.08.05c-.68.07-.93.06-.72,0s.07-.09-.33-.06c-.66,0-.62-.08.06-.17a3.11,3.11,0,0,1,1.3,0s-.12.05-.31.05m-.82-8.95a2.22,2.22,0,0,1-.62-.08,4.3,4.3,0,0,1,1.23.07,2.15,2.15,0,0,1-.62,0m.22,8.6a1.85,1.85,0,0,1-.48-.06c-.11,0,0-.06.29-.05s.48,0,.48.06-.12.06-.29.05m-.15.82c-.25,0-.39,0-.31-.05a1.25,1.25,0,0,1,.43,0c.43.05.4.07-.12.06m-.06,2.35c-.25,0-.38.05-.29.08s0,.05-.17,0c-.58,0-.31-.21.31-.24s.84.07.15.11m.24,10.59c-.18,0-.31,0-.3,0s.13,0,.31,0,.31,0,.31,0-.13,0-.31,0M253,27.65c-.19,0-.31,0-.31-.06s.12-.07.31-.08.31,0,.31.06-.13.09-.31.08m-.59-2.16c-.19,0-.31,0-.31,0s.12-.07.31-.09.31,0,.31,0-.12.07-.31.09m-.8,0c-.07,0-.12,0-.12-.08s.14-.08.29-.08.21,0,.12.09a.86.86,0,0,1-.29.08m-.18-1.72c.15.11.1.11-.32,0s-.43-.1-.14-.18a2.05,2.05,0,0,1,.66-.06c.2,0,.18,0,0,.06s-.26.07-.17.14M246,37.83c-.19,0-.31,0-.31,0s.13,0,.31,0,.31,0,.31,0-.13,0-.31,0m-6.22-16c-.22,0-.27-.09-.14-.11a1.35,1.35,0,0,1,.51,0c.16,0,.22.09.14.11a1.86,1.86,0,0,1-.51,0m-.9,15.95c-.18,0-.31,0-.31,0s.13,0,.31,0,.31,0,.31,0-.13,0-.31,0m-6.17-1.53a1.86,1.86,0,0,1-.48-.06c-.11,0,0-.06.29-.05s.55,1.57.55,1.6-.19-1.48-.36-1.48m-2.31.09c-.27,0-.38,0-.28-.09a1.26,1.26,0,0,1,.45-.08c.15,0,.28,0,.28.09s-.21.08-.45.08m-2.48-.17c-.28,0-.46,0-.46-.05s.22-.08.46-.08a1.17,1.17,0,0,1,.46.05,1.21,1.21,0,0,1-.46.08M223.05,3.28c-.18,0-.31,0-.31,0s.13-.06.31-.06a.88.88,0,0,1,.31,0,.88.88,0,0,1-.31.06m-.5,11.37c-.25,0-.18,0,.19,0s.5,0,.4,0a3.36,3.36,0,0,1-.59,0m.05,21.51c-.25,0-.38,0-.28-.06a1.32,1.32,0,0,1,.46,0c.44.05.37.09-.19.08m.18.67c-.18,0-.31,0-.31-.06s.12-.05.31-.05.31,0,.31.06-.12.05-.31.05m-.23.22-.69-.06c-.37,0-.32-.06.23-.05a2.31,2.31,0,0,1,.69.06s-.09.05-.23.05m-1-20.32a1.26,1.26,0,0,1-.32-.06c-.11,0,0-.06.14-.05s.32,0,.32.06-.06.06-.14.05m-.33.46a1.21,1.21,0,0,1-.46,0,1.29,1.29,0,0,1,.46-.07,1.22,1.22,0,0,1,.46,0,1.27,1.27,0,0,1-.46.07M217.1,35.66a1.28,1.28,0,0,1-.32-.06c-.11,0,0-.06.14-.05s.32,0,.32.06-.06.05-.14.05m-1.67.46c-1.08,0-1.35,0-1.1,0a7.21,7.21,0,0,0,1,.08c.37,0,.57,0,.48.06a4.62,4.62,0,0,1-.86,0,2.53,2.53,0,0,0-1,.08c-.3.1-.33.11-.21,0s-.35-.27-1.62-.39c-.8-.08-1-.08-1,0a1.55,1.55,0,0,1-.63.13c-.34,0-.55.08-.45.11s0,.05-.14.05-.32,0-.32-.09-.06-.08-.52,0c-.28,0-.42,0-.31,0s0-.08-.17-.09.22,0,1-.06c1,0,1.3,0,1.17-.11s-.05-.08.09-.08.19,0,.11-.11,0-.11.2-.11.29,0,.22,0,.08.09.34.16.43.09.31,0,.09-.17.61-.09.51,0,.44-.2,0-.09.32,0l.35.14.19-.13a.82.82,0,0,1,.42-.12h.51c.52,0,.74.25.27.3-.25,0-.46.1-.46.14s.21.1,1.88.14c.4,0,.67,0,.59.06a15.07,15.07,0,0,1-1.59,0m1-.18c-.26,0-.36,0-.26-.09a1,1,0,0,1,.45,0c.43.05.31.14-.19.13m-1.08,0a.88.88,0,0,1-.31,0,.89.89,0,0,1,.31-.06c.18,0,.31,0,.31,0s-.13.06-.31.06m-1.55.77c-.18,0-.31,0-.31-.06s.12-.05.31-.05.31,0,.31.06-.12.05-.31.05m-1.94-.41c-.65,0-.65,0-.06-.06s.51,0-.23,0-.78,0-.51-.06a2.33,2.33,0,0,1,.54-.05l.76.06c.72.05.37.15-.49.14m-.35-1.62c-.25,0-.46,0-.46-.09s.19-.07.46,0a1.18,1.18,0,0,1,.46.09,1.15,1.15,0,0,1-.46,0M211,3.56c-.68,0-1.19-.14-.68-.13a5.75,5.75,0,0,1,1.29.12,2.15,2.15,0,0,1-.62,0M209.5,35.82c-.34,0-.53,0-.43-.06a2.32,2.32,0,0,1,.62,0c.63.05.55.08-.19.07m-1.26-.07c.22,0,.32,0,.23.06s.14.07.51.09c1,.06.62.08-1.45.11L205,36a4.39,4.39,0,0,1-.88,0,1.63,1.63,0,0,0-.65,0c-.38.05-.4,0-.12-.08s.21-.14,0-.12a5.52,5.52,0,0,1-.86,0c-.46,0-.56,0-.59.06s0,.09.12.05a1.42,1.42,0,0,1,.46-.07c.17,0,.25,0,.17.07s.06.14.29.23c.41.16.41.16-.23.09a8,8,0,0,0-1.09,0c-.25,0-.43,0-.43,0a10.19,10.19,0,0,0-1.46-.07c-1.14,0-1.36,0-1,.05s.4.06,0,0c-.68,0-1,0-.55.1s-.35.11-.9,0c-.28-.05-.37,0-.37,0s-.15.09-.31.09c-.45,0-.37-.09.16-.16a1.45,1.45,0,0,1,.46,0,1.47,1.47,0,0,0,.46,0c.64-.09.25-.16-1.11-.18-.89,0-1.08,0-1-.12s.14-.12-1.09-.05c-.65,0-.9.08-.79.13s0,.07-.33,0c-.62,0-1.62.08-1.11.14.22,0,.25.06.09.07a4,4,0,0,1-.72,0c-.39,0-.37-.07.12-.13.31,0,.49-.1.39-.13s0-.07.16-.09.23,0-.08-.09.2,0,1.22,0,1.7,0,1.79,0,0,0-.25-.05-.31,0,0-.05.35-.07.25-.1.08-.05.42-.06a3.85,3.85,0,0,1,.77.05c.09,0,0,.05-.17.05s-.25,0-.15.05c.26.08,1.06,0,.89-.07a5.52,5.52,0,0,1,1.95-.08,15.09,15.09,0,0,0,1.7,0,7.47,7.47,0,0,1,2,.1c.62.1.69.11.29,0a2.38,2.38,0,0,1-.54-.16s2.56,0,3,.06c.15,0,1.16,0,2.2,0a13.59,13.59,0,0,1,1.76,0c-.09,0,0,.05.23.06s-.09,0-.68.07-.9.07-.68.07m-.59.5c-.16,0-.28-.05-.28-.12s.09-.1.46,0,.34.17-.19.16m.21-.78a1.26,1.26,0,0,1-.32-.06c-.11,0,0-.06.14-.05s.32,0,.32.06-.06.06-.14.05m-1.79,1.48c-.25,0-.18,0,.19,0s.5,0,.4,0a3.28,3.28,0,0,1-.59,0m-.51-19.31c-.25,0-.18,0,.19,0s.5,0,.4,0a3.17,3.17,0,0,1-.59,0M205,35.35c-.24,0-.43-.08-.42-.13s.09-.06.19,0a2.08,2.08,0,0,0,.6.08c.25,0,.36,0,.26.06a2.55,2.55,0,0,1-.63,0m-.49.87c-.18,0-.23,0-.12-.06a2,2,0,0,1,.49-.05c.18,0,.23,0,.12.06a2,2,0,0,1-.49.05m0,.45c-.18,0-.31,0-.31-.09s.13-.07.31-.05.31.06.31.09-.12.05-.31.05m-.81-19a1.89,1.89,0,0,1-.48-.06c-.11,0,0-.06.29-.05s.48,0,.48.06-.12.06-.29.05m-1.25.12a1.94,1.94,0,0,1-.62,0,1.11,1.11,0,0,1,.48,0c.28,0,.39,0,.26-.06s-.06,0,.15,0c.52.06.4.13-.28.16M202.44,35c-.16,0-.31-.11-.31-.14s.14,0,.31,0,.31.11.31.14-.14,0-.31,0m-1.53,0a1.71,1.71,0,0,1-.63-.13c0-.05.06-.05.23,0a7.72,7.72,0,0,0,1,.12c.43,0,.61.06.4.07a8.39,8.39,0,0,1-1,0m0-1.18c-.18,0-.31,0-.31-.06s.12-.05.31-.05.31,0,.31.06-.12.05-.31.05m-1,.87c-.22,0,0,0,.39,0s.6,0,.38,0a6.42,6.42,0,0,1-.77,0m.1-17.46c-.25,0-.18,0,.19,0s.5,0,.4,0a3.29,3.29,0,0,1-.59,0m-1.27.52c-1.17,0-1.54,0-.65-.11s1.36-.08,1.36,0a1.64,1.64,0,0,1-.71.1M198,34.88c-1,0-1-.09,0-.09a3,3,0,0,1,.77,0,2.91,2.91,0,0,1-.77,0m-1,.47-.69,0c-.08,0,0,0,.2-.07a2.83,2.83,0,0,1,.68,0c.52.06.4.14-.19.11m-.4-18c-.52,0-.58,0-.23-.06a3.9,3.9,0,0,1,.69,0c.42.05.25.08-.46.07m0,17.7c-.34,0-.54-.06-.44-.08a2.8,2.8,0,0,1,1.06.07,2.17,2.17,0,0,1-.62,0m-.67,1.62c0,.1-.06.1-.17,0a1,1,0,0,0-.48-.1c-.61,0,.31-.13,1.05-.14s.64,0,.17,0c-.29,0-.56.11-.57.18m-.06-2.5a6,6,0,0,1-.66-.05,3.36,3.36,0,0,0-.56,0c-.18,0-.24,0-.12,0s.17,0,.08-.07a2.84,2.84,0,0,1,.77,0c1,.1,1.18.14.49.12m-1.46,1.16-1.76,0a5.39,5.39,0,0,1-1.31-.14c-.79-.19-.76-.27.11-.27.37,0,.51,0,.31,0-.54,0-.5.22.06.26.39,0,.46,0,.31-.09s-.09-.1.09-.05a13.67,13.67,0,0,0,2.84.07c1.3,0,1.36,0,.89.06a13.18,13.18,0,0,1-1.54.11m1,1.07c-.74.09-1.33.09-1.33,0s-.11-.07-.25-.06a2.52,2.52,0,0,1-.77-.15l-.52-.17.77,0c.65,0,.77,0,.77-.07s.13-.11.28-.11c.4,0,.59.28.21.3-.19,0-.06,0,.28,0h.86c.42,0,.25.13-.31.2m-.06-2.47c-.17,0-.27,0-.23,0s-.28-.08-.83-.08a5.25,5.25,0,0,1-1-.08,2.68,2.68,0,0,0-.71-.07,1.76,1.76,0,0,1-.59-.06,2.23,2.23,0,0,1,.68,0c.37,0,.76-1,.91-1s.28,1,.17,1,0,.12.12.17a.78.78,0,0,0,.54,0,1.53,1.53,0,0,1,1.25.15l-.29,0M194,35.08a3.06,3.06,0,0,1-.77,0s.09,0,.23-.05l.77,0a1.55,1.55,0,0,1,.54,0,3.34,3.34,0,0,1-.77.06m0,.38a2.48,2.48,0,0,1-.46,0,2.69,2.69,0,0,1,.46,0,1.09,1.09,0,0,1,.46,0,1.09,1.09,0,0,1-.46,0m-3.13-3.65c-1.11,0-1.89-.08-1.52-.19s1.19-.07,1,0,0,.08.49.06c2-.08,2-.08,1.53,0a11.75,11.75,0,0,1-1.47.09m1.05,2.15a3.06,3.06,0,0,1-1.48-.06c-.13-.06-.25-.08-.26,0a1,1,0,0,1-.48,0c-.32,0-.46,0-.46.06s-.08.08-.19.06-.08-.08,0-.13.21-.12.17-.15.22,0,.56,0a6.37,6.37,0,0,0,1.17-.06,1.72,1.72,0,0,1,.93,0c.48.12.48.23,0,.31m-.93-1.56c-.25,0-.18,0,.19,0s.5,0,.4,0a3.28,3.28,0,0,1-.59,0M190.6,36a2.22,2.22,0,0,1-1.33.17c-.24-.12-.77-.09-.55,0s.08.11-.23.09c-.66,0-.58-.27.1-.26a1.47,1.47,0,0,0,.59-.06s.09,0,.19,0a4.21,4.21,0,0,0,.88-.1,7.64,7.64,0,0,1,1.11-.13c.29,0,.26,0-.11.07a1.31,1.31,0,0,0-.64.2m.4-3.77c-.18,0-.31,0-.31,0s.13-.06.31-.06a.87.87,0,0,1,.31,0,.88.88,0,0,1-.31.06m-2.79,1.39c-.27-.08,0-1.17.35-1.12.15,0,.23,1.07.12,1.1s-.06,0,.15,0,.31-1.09.31-1.15.22-.11.49-.1.43,0,.14.08-.19,1.09.25,1.13.34.05-.52.08a6.48,6.48,0,0,1-1.29,0m1.89,1.54c-.17,0-.31,0-.31-.1s-.06-.08-.62,0-.62.08-.62,0a2.87,2.87,0,0,1,1.39-.11c.52,0,.65.19.15.19m0,1.23c-.18,0-.31,0-.31-.06s.13,0,.31,0a.89.89,0,0,1,.31.06.88.88,0,0,1-.31,0m-1.47-4.63a5.94,5.94,0,0,0-.85-.08l-.77-.05c-.11,0,1.36,0,1.79.05a.07.07,0,0,1,.06.07s-.08,0-.23,0m-.7.6c-1-.06-1.06-.15-.09-.11l1,0c.06,0,0,0-.08.06a3.9,3.9,0,0,1-.79,0M187.59,22c-.22,0,0,0,.39,0s.6,0,.38,0a6.28,6.28,0,0,1-.77,0m.84,11.83a1.29,1.29,0,0,1-.32-.06c-.11,0,0-.06.14-.05s.32,0,.32.06-.06.06-.14.05M188.09,37a3,3,0,0,1-.63-.06c-.11,0-.13-.06,0-.06l.63,0c.31,0,.49,0,.49.06s-.2.09-.45.09m-1-1.47a5.42,5.42,0,0,1-1.39,0q-.25-.07-.25.05c0,.07-.15.12-.31.12s-.31,0-.31,0a6.88,6.88,0,0,0,1.91,0,3.28,3.28,0,0,1,1.48,0,1.37,1.37,0,0,1-.62.07c-.86,0-1.15.14-.46.24.4.06.43.08.12.07h-.89c-.25,0-.43,0-.38-.05s-.06-.07-.25-.07-.26,0-.17,0a4.12,4.12,0,0,0-1,0c-3.61,0-3.93,0-4-.13s0-.12.21-.06a9.88,9.88,0,0,0,2.41.06c-.08,0,.35-.11,1-.15.87-.07,1-.1.66-.14s-.35-.06.08-.05a3.35,3.35,0,0,0,.8-.08,1.68,1.68,0,0,1,.71,0,3.46,3.46,0,0,0,1.2,0s.12,0,.31,0c.65.08.24.19-.84.24m.35-23.19c-.16,0-.29,0-.29,0s-.14,0-.31,0-.31-.06-.31-.09.12,0,.29,0a1.37,1.37,0,0,0,.48,0,1.37,1.37,0,0,1,.48,0c.18,0,.22.05.12.08a1.33,1.33,0,0,1-.46,0m-.64,24.21c-.63-.07-.43-.09.34,0,.28,0,.43,0,.35.06a4,4,0,0,1-.69,0m.28-2.86a2.36,2.36,0,0,0-.62-.1c-.83,0-1-1-1-1.1s.14,0,.33,0,.25,0,.12-.11-.09-.15.37-.14.51,0,.11.05-.36.07.23.18c.37.07.73,1.18.72,1.23s0,.08-.23,0m-1-2a1.3,1.3,0,0,1-.46,0c-.1,0,0-.06.28-.05.55,0,.63,0,.18.08m-.3,4.67c-.62,0-.81-.07-.43-.13a2.94,2.94,0,0,1,1,.09,2,2,0,0,1-.62,0m-.47.28c-.25,0-.46,0-.46-.07s-.11,0-.34,0a5.17,5.17,0,0,1-1.63-.06,2.3,2.3,0,0,1,.56,0,12.6,12.6,0,0,0,1.26,0,3.68,3.68,0,0,1,1.1,0c.32.09.1.16-.48.16m-.51-1.36-1.09-.15c-.35-.06-.34-.07.06-.07s.48,0,.48.06a1.92,1.92,0,0,0,.62.09,1.88,1.88,0,0,1,.62.09,2.24,2.24,0,0,1-.68,0m.05.91c-.37,0-.37-.07,0-.17s.3-.06.3,0-.14.12-.31.12m-.28-2.58a.84.84,0,0,1-.31,0,.91.91,0,0,1,.31-.06c.18,0,.31,0,.31,0s-.13.06-.31.06m-1.17,2.74c-.58-.06-.52-.07.77-.08.65,0,.68,0,.28.07a3.49,3.49,0,0,1-1,0m.14-4c-.25,0-.18,0,.19,0s.5,0,.4,0a3.3,3.3,0,0,1-.59,0m.33,3.19a1.09,1.09,0,0,1-.49-.12c-.07-.07,0-.08.4-.05.55,0,.64.21.09.18m0,1.25a.85.85,0,0,1-.31,0,.92.92,0,0,1,.31-.06c.18,0,.31,0,.31,0s-.13.06-.31.06m-.45-24.12a.9.9,0,0,1-.31,0,.87.87,0,0,1,.31-.06c.18,0,.31,0,.31,0s-.13.06-.31.06m-1.31.2c-.22,0,0,0,.39,0s.6,0,.39,0a6.31,6.31,0,0,1-.77,0m-.7,23.66c0,.1-.48.1-.78,0s-.15-.1.78-.12c.43,0,.6,0,.39,0s-.39.05-.39.1m-1.66-.36c-.81-.06-.52-.12.59-.11,1,0,1,0,.48.08a6.75,6.75,0,0,1-1.06,0m.56-23.47c-.18,0-.23,0-.12-.06a1.94,1.94,0,0,1,.49-.05c.18,0,.23,0,.12.06a2,2,0,0,1-.49.05m0-9.91a1.05,1.05,0,0,1-.46-.06,2,2,0,0,1,.93,0,1.06,1.06,0,0,1-.46.05m-.58,33.59a5.76,5.76,0,0,1-.94,0c-.1,0-.07,0,.08,0l.94,0a2.27,2.27,0,0,1,.69,0,2.73,2.73,0,0,1-.77.07m0-1.24c.09,0,0,0-.32,0-.6,0-.31-.14.4-.12.34,0,.39,0,.14,0s-.31,0-.22.08m.14.78c-.23.06-.28.06-.24,0s.16-.12.29-.12c.31,0,.29.07-.05.17m-.49-.28c-.36,0-.43,0-.28.12s.1.11-.29.08-.49,0-.49.05-.08.07-.19.05c-.35-.07.25-.44.65-.41a3.71,3.71,0,0,0,.74,0c.26,0,.34,0,.34,0s-.23.09-.48.09m-.31-3.81a1.16,1.16,0,0,1-.46-.05c0-.07.49-.12.74-.07s.21.13-.28.13m-.94,3.57c-.22,0-.31,0-.21-.11s.58-.18.58,0-.17.13-.37.13m-.77.88c-.16,0-.13-.08.06-.1a2.2,2.2,0,0,1,.59.06c.16,0,.13.08-.06.09a2.23,2.23,0,0,1-.59-.06m0-5.87a.87.87,0,0,1-.31,0,.88.88,0,0,1,.31-.06c.18,0,.31,0,.31,0s-.13.06-.31.06m-1,1.05c-.14,0-.08,0,.12-.07a5.18,5.18,0,0,1,.83-.07c.31,0,.28,0-.12.07s-.69.07-.83.07m.69,3.81c-.34,0-.55,0-.45-.06a3,3,0,0,1,.63-.05.94.94,0,0,1,.45.06,1.9,1.9,0,0,1-.63.05m0,1.34c-.19,0-.31,0-.31-.06s.12-.06.31-.05.31,0,.31.06-.12.05-.31.05m-.64-.79a1.05,1.05,0,0,1-.4-.09,1.19,1.19,0,0,0-.54-.05c-.24,0-.29,0-.17-.05s0-.11-.4-.15-.62,0-.78,0a1.21,1.21,0,0,1-1,0c-.38-.12,0-.21.54-.14a1.37,1.37,0,0,0,.46,0c.1,0-.15-.07-.59-.09-.86,0-1.11-.15-.28-.12l1.09,0c.31,0,.51,0,.46.05s.25.1.62.17a4.28,4.28,0,0,0,.69.1s.12,0,.31,0c.34,0,.3.31,0,.31m-.75-4.15a1.15,1.15,0,0,1-.46-.05,1.19,1.19,0,0,1,.46-.08c.28,0,.46,0,.46.05s-.22.08-.46.08m-.13,5.18c-.18,0-.25-.07-.14-.1a.83.83,0,0,1,.45,0c.3.09.14.13-.31.08m-.39-5.69c-.49,0-.59,0-.34-.06a2.93,2.93,0,0,1,.68,0q.77.09-.34.08m.2.17c-.28,0-.4,0-.29-.06a1.88,1.88,0,0,1,.48-.05c.18,0,.29,0,.29.06s-.2.05-.48.05m-.49-1.42c-.25,0-.18,0,.19,0s.5,0,.4,0a3.42,3.42,0,0,1-.59,0m-.67,2c-.37,0-.64,0-.6.08s-.06.07-.23.07c-.35,0-.37,0-.12-.14a2.76,2.76,0,0,1,.77-.08,1.68,1.68,0,0,0,.59-.05s.12-.06.31-.05c.58,0-.06.16-.71.17m.08,4.58c-.18,0-.29,0-.29-.06s.2-.05.48-.05.4,0,.29.06a1.86,1.86,0,0,1-.48.05m-.45-5.09c-.25,0-.45-.1-.45-.14s.23,0,.46,0c.58.15.58.18,0,.09m-1.45-.44c-.65,0-.8,0-.68-.05a2.32,2.32,0,0,1,.8,0q.65,0,.43,0t.48-.06c.62,0,.64,0,.25.08a12.43,12.43,0,0,1-1.28.1m1.29.19c-.18,0-.31,0-.31,0s.13-.06.31-.06a.83.83,0,0,1,.31,0,.94.94,0,0,1-.31.06m0,.57a1.64,1.64,0,0,1-.77,0c-.26-.06-.41-.07-.42,0s-.14.07-.29.07-.26,0-.06-.21a3.16,3.16,0,0,1,.54.06c.4.06.54.07.65,0a1.15,1.15,0,0,1,.42-.07c.41,0,.37.13-.06.21M173,30c-.25,0-.38,0-.28-.06a1.29,1.29,0,0,1,.46,0c.44.05.37.08-.18.08m-1.25,1.44c-1,0-1.92,0-2.16.05a2.46,2.46,0,0,1-.63,0c-.11,0,0,0,.2,0s.26,0-.1-.1c-.58-.12-.65-.26-.11-.22.2,0,.35.07.32.12s0,.08.49,0,.44-.11.17-.14-.38-.16-.19-.34a3.49,3.49,0,0,1,1.34,0c.35.08.34.09-.12.05s-.48,0-.34.05,0,.08-.28.06-.46,0-.46,0a2.61,2.61,0,0,0,.94.07c.68,0,1,0,1,.1s-.71.14-.9,0a.87.87,0,0,0-.44,0c-.3.09-.25.1.46.09h1.36c.15,0,.18,0,.08,0s0-.07.19-.09.27,0,.14,0-.05.06.12.07.26,0,.15.06,0,.05.14.06a1.14,1.14,0,0,1,.32,0s-.77,0-1.73,0m-.13.74c-.19,0-.31,0-.31-.06s.12-.07.31-.08.31,0,.31.06-.13.09-.31.08m-.13,3a1.07,1.07,0,0,1-.46,0,1.11,1.11,0,0,1,.46,0,2.49,2.49,0,0,1,.46,0,2.49,2.49,0,0,1-.46,0m-.14-3.55a1.29,1.29,0,0,1-.45-.09c-.1-.05,0-.08.28-.08s.45,0,.45.09-.13.08-.28.08m-.5,5.55a2.55,2.55,0,0,1-.46-.06,2.52,2.52,0,0,1,.46,0,1.1,1.1,0,0,1,.46.06,1.08,1.08,0,0,1-.46,0m-.75-7.29h-1.28a1.5,1.5,0,0,1-.47-.06,6.33,6.33,0,0,1,2-.08c1,.06.83.14-.25.14m-.49,2.28a1,1,0,0,1-.46-.06s-.13,0-.31,0-.31,0-.31,0a4.44,4.44,0,0,1,1.36,0c.35.07.21.13-.28.13m-.3-.43a2.55,2.55,0,0,1-.46-.06,2.53,2.53,0,0,1,.46,0,1.1,1.1,0,0,1,.46.06,1.07,1.07,0,0,1-.46,0M168.71,21c-.25,0-.38-.06-.29-.08.27-.08.75,0,.75,0s-.19.06-.46,0m-.26,16.23c-.43-.05-.31-.14.19-.13.26,0,.36,0,.26.09a1,1,0,0,1-.45,0m-.87-7.48c-.3,0-.25,0,.16-.05.86-.06,1.35-.06.77,0-.25,0-.68,0-.93,0m.28,1.6c-.18,0-.22-.05-.12-.08a1.32,1.32,0,0,1,.46,0c.18,0,.23.05.12.09a1.33,1.33,0,0,1-.46,0m.32.48a.86.86,0,0,1-.31,0,.93.93,0,0,1,.31-.06c.18,0,.31,0,.31,0s-.13.06-.31.06m-.23-.28-.69-.06c-.37,0-.32-.06.23-.05a2.29,2.29,0,0,1,.69.06s-.09.06-.23.05m-.13,4.42c-.18,0-.31,0-.31-.06s.13,0,.31,0a.88.88,0,0,1,.31.06.87.87,0,0,1-.31,0m-1.24-5.19a3.07,3.07,0,0,1-1,0c-.11-.06.15-.07,1-.06,1.29,0,1.26.07-.06.11m.59,1.17c-.3-.06-.26-.06.17,0s.48.06.38.07a2,2,0,0,1-.56,0m.23,3.18a.83.83,0,0,1-.29-.09c-.09,0,0-.08.12-.08s.29,0,.29.09-.06.08-.12.08m-1.31-14.17c-.3,0-.25,0,.15-.05.86-.06,1.35-.06.77,0-.25,0-.68,0-.93,0m-.18,13.73a3.72,3.72,0,0,1-.85-.09,2.81,2.81,0,0,1,1.07,0,3.14,3.14,0,0,0,.72,0c.37,0,.43,0,.22,0a7.89,7.89,0,0,1-1.16,0m-.21-2.86-.72-.05.68,0c.37,0,.6,0,.51,0s0,.05.2.05.31,0,.22,0a6.94,6.94,0,0,1-.88,0m.8.39a1.28,1.28,0,0,1-.32-.06c-.11,0,0-.06.14-.06s.32,0,.32.06-.06.06-.14.06m-.36,2.74a1,1,0,0,1-.46-.06,2,2,0,0,1,.93,0,1.05,1.05,0,0,1-.46.05m-.14-.84c-.19,0-.31,0-.31-.06s.12-.05.31-.05.31,0,.31.06-.12.06-.31.05m-1.27-2.6c-.25,0-.18,0,.19,0s.5,0,.4,0a3.23,3.23,0,0,1-.59,0m.16,3.38c-.28,0-.4,0-.29-.06a1.89,1.89,0,0,1,.48-.05c.18,0,.29,0,.29.06s-.2.05-.48.05M164.71,36a2.34,2.34,0,0,1-.62,0c-.15,0-.19-.05-.08,0a3.09,3.09,0,0,0,.62,0c.28,0,.42,0,.42,0s-.16.07-.34.09m-.21-6.13c-.18,0-.31,0-.31-.06s.12-.05.31-.05.31,0,.31.06-.12.05-.31.05m-.22,4.64c-.28,0-.41,0-.31-.05s0-.06-.2-.07-.17,0,.17-.06.46,0,.35,0,0,.06.14.06.32,0,.32.06-.2.05-.48.05m-.7-4.92c-.52,0-.93,0-.93-.06s.4,0,.93,0a4.44,4.44,0,0,1,.92.06,4.33,4.33,0,0,1-.93,0m.23,1.2c-.25,0-.18,0,.19,0s.5,0,.4,0a3.36,3.36,0,0,1-.59,0m-.72-.83c-.28,0-.4,0-.29-.06s0-.06-.18-.06-.29,0-.18,0a3.19,3.19,0,0,1,1.14.1s-.2.05-.48.05m.12,4.62c-.18,0-.31,0-.31,0s.13-.06.31-.06a.87.87,0,0,1,.31,0,.91.91,0,0,1-.31.06m-.57-4c-.18,0-.31,0-.31-.06s.13,0,.31,0a.9.9,0,0,1,.31.06.86.86,0,0,1-.31,0m-1.29-.81c-.25,0-.18,0,.19,0s.5,0,.4,0a3.23,3.23,0,0,1-.59,0M161,34.67a.42.42,0,0,1-.34-.08c-.14-.13-.09-.13.56-.07.4,0,.55.07.34.08a3.28,3.28,0,0,0-.56.07m.22-3c-.26,0-.36,0-.26-.09a1,1,0,0,1,.45,0c.43.05.31.14-.19.13m-1.84-1.86c-.28,0-.4,0-.29-.06a1.94,1.94,0,0,1,.48-.05c.18,0,.29,0,.29.06s-.2.05-.48.05m-.46,1.51c-.18,0-.31,0-.31-.06s.13,0,.31,0a.9.9,0,0,1,.31.06.88.88,0,0,1-.31,0m-.63-18.56c-.38,0-.41.05-.14.14s.24.11-.15.11c-.58,0-.4-.24.28-.36.43-.07.49-.08.49,0s-.2.09-.48.11m-.66,17c-.22,0,0,0,.39,0s.6,0,.38,0a6.27,6.27,0,0,1-.77,0m-.75,4.81a12.29,12.29,0,0,1-1.39-.06,12.45,12.45,0,0,1,1.39,0,9.06,9.06,0,0,1,1.39.06,8.88,8.88,0,0,1-1.39,0m.37-23.66a.86.86,0,0,1-.31,0,.89.89,0,0,1,.31-.06c.18,0,.31,0,.31,0s-.13.06-.31.06m.16,1.85a3.71,3.71,0,0,1-.54-.1c-.37-.09-.35-.09.14,0s.67.12.4.12m-.68.24c-.31,0-.45,0-.37,0s.86-.12.86,0a1.15,1.15,0,0,1-.49.09M155.45,30.5a8.09,8.09,0,0,1-2.23-.11,8,8,0,0,1,1,0l1.91,0c1.44,0,.92.09-.68.09m1.28,3.86c-.19,0-.31,0-.31,0s.12-.07.31-.09.31,0,.31,0-.12.07-.31.09m-.29-23.14c-.25,0-.38,0-.28-.06a1.29,1.29,0,0,1,.46,0c.44.05.37.08-.19.08M156.16,31c-.37,0-.62,0-.62-.05s.25-.06.62,0l.62.05-.62,0m0-1.3a.85.85,0,0,1-.31,0,.91.91,0,0,1,.31-.06c.18,0,.31,0,.31,0s-.13.06-.31.06m0-18.8a1.28,1.28,0,0,1-.32-.06c-.11,0,0-.06.14-.05s.32,0,.32.06-.06.06-.14.06m-.78,23.43a3.57,3.57,0,0,0-.79.06,1.23,1.23,0,0,1-.43.05c-.18,0-.07-.05.23-.11a6.78,6.78,0,0,1,1.11-.1c.82,0,.71.09-.12.1M155,11c-.25,0-.18,0,.19,0s.5,0,.4,0a3.35,3.35,0,0,1-.59,0m-.48,1.61c-.3-.06.16-.1.56-.05s.31.05,0,.07a3.2,3.2,0,0,1-.57,0m.52.25c-.18,0-.31,0-.31-.06s.13,0,.31,0a.92.92,0,0,1,.31.06.85.85,0,0,1-.31,0M154.77,31c-.38.05-.46,0-.46-.05s.15-.1.46-.08l.46.05-.46.08m-.23.17c-.3-.06-.26-.06.17,0s.48.06.38.07a2,2,0,0,1-.55,0m-1-.35a4.74,4.74,0,0,0-.71-.06c-.74,0-.78,0-.09-.08.93-.08,1.24-.06,1.23.09s-.08.1-.43,0m-.65.26c-.93,0-1.08,0-1.1.08s-.06.1-.32,0-.19-.15.09-.18a2.94,2.94,0,0,1,1.17,0s.14,0,.31,0a3.13,3.13,0,0,1,.62,0c.61.07.31.1-.77.07m.9,3.21a1.26,1.26,0,0,1-.32-.06c-.1,0,0-.06.14-.05s.32,0,.32.06-.06.06-.14.05m-1-4.61c-.68,0-.76,0-.4-.05s.36-.07.09-.09c-.6,0-.46-.13.22-.13.37,0,.58,0,.48.06s0,.07.14.09c.56.07.34.12-.53.12m.52.18c-.18,0-.31,0-.31-.06s.13,0,.31,0a.87.87,0,0,1,.31.06.87.87,0,0,1-.31,0m-.05,4.59c-.18,0-.31,0-.31-.06s.13,0,.31,0a.86.86,0,0,1,.31.06.87.87,0,0,1-.31,0M152.26,11c-.25,0-.18,0,.19,0s.5,0,.4,0a3.29,3.29,0,0,1-.59,0m.54.19a1.26,1.26,0,0,1-.32-.06c-.11,0,0-.06.14-.05s.32,0,.32.06-.06.06-.14.06m-.57,23.41c-.25,0-.39,0-.31-.06a2.31,2.31,0,0,1,.49,0c.49.06.37.09-.19,0m.25-22.41a1.25,1.25,0,0,1-.32-.06c-.11,0,0-.06.14-.05s.32,0,.32.06-.06.06-.14.05M151.07,37c-.71,0-1.13,0-.91,0,.81.07.31.13-.86.11s-1.22,0-.63-.12a7.9,7.9,0,0,1,1.13-.09c.28,0,.43,0,.32,0a13.92,13.92,0,0,0-1.4,0c-1.36.07-2.89,0-1.67-.07a5.83,5.83,0,0,0,.86-.1,6.13,6.13,0,0,1,1.7,0,5.53,5.53,0,0,0,1.11,0c1,0,1.09,0,1,.09s0,.1.28.11a1.36,1.36,0,0,1,.43,0s-.6,0-1.31,0m.75.33c-.1,0,0-.06.2-.1s.34,0,.18,0a.75.75,0,0,1-.39.07m-.17-25.27a3.06,3.06,0,0,1-1.39,0c-.14,0-.06-.05.22,0a6.61,6.61,0,0,0,1.13-.07,2.86,2.86,0,0,1,.69-.06,2.45,2.45,0,0,1-.65.14m0,.86a1.24,1.24,0,0,1-.43,0c-.08,0,.06,0,.31,0,.52,0,.56,0,.12.07M150.53,29.7c-.46-.09-.15-.12.68-.07.62,0,.64,0,.18.09a3.3,3.3,0,0,1-.86,0m.37-.17c-.19,0-.23,0-.12-.06a2,2,0,0,1,.49-.05c.18,0,.23,0,.12.06a1.94,1.94,0,0,1-.49.05m.32,1.35a.85.85,0,0,1-.31,0,.94.94,0,0,1,.31-.06c.18,0,.31,0,.31,0s-.13.06-.31.06m-.34-18.3c-.25,0-.38,0-.29-.06s-.06-.08-.37-.11-.45-.08-.32-.1a3.14,3.14,0,0,1,.83.1c.74.17.74.17.16.16M151,21c-.19,0-.31,0-.31-.06s.12-.05.31-.05.31,0,.31.06-.12.06-.31.05m-.19-10.08a.86.86,0,0,1-.31,0,.9.9,0,0,1,.31-.06c.18,0,.31,0,.31,0s-.13.06-.31.06m-.12,10.44c-.18,0-.31,0-.31,0s.13-.06.31-.06a.82.82,0,0,1,.31,0,.93.93,0,0,1-.31.06m-.13,16c-.19,0-.31,0-.31-.06s.12-.06.31-.05.31,0,.31.06-.12.06-.31.05M150,31c-.18,0-.23,0-.12-.06a2,2,0,0,1,.49-.05c.19,0,.23,0,.12.06A1.93,1.93,0,0,1,150,31m0,.5a1.83,1.83,0,0,1-.62-.06,1.82,1.82,0,0,1,.62,0,2.2,2.2,0,0,1,.62.06,2.22,2.22,0,0,1-.62,0m-.59-2.08a4.15,4.15,0,0,1-.92-.06,4.12,4.12,0,0,1,.93,0,5,5,0,0,1,.92.06,4.92,4.92,0,0,1-.93,0m.27,1.71c-.15,0-.26,0-.22,0s-.16.07-.46.08-.54,0-.54,0-.12,0-.37,0a5.89,5.89,0,0,1-.83.06c-.36,0-.32,0,.14-.08s.56-.08-.4-.06c-.71,0-1,0-1-.06a2.39,2.39,0,0,1,.93-.06,5.61,5.61,0,0,1,.92.05,2.68,2.68,0,0,0,.62.07,1.94,1.94,0,0,0,.62,0,2.11,2.11,0,0,1,.63,0c.34,0,.55,0,.45.06a1.36,1.36,0,0,1-.48,0M148.81,21c-1,0-1.24-.07-.49-.11a6.06,6.06,0,0,1,1.57.08c-.1,0-.59,0-1.08,0m.34,8.67a7.17,7.17,0,0,0-.88,0c-.35.06-.82,0-.59,0s0-.06-.26-.06a2,2,0,0,0-.6.06c-.09,0-.17,0-.18,0s.2-.1.51-.1h1.7a4,4,0,0,1,1,.05,3.4,3.4,0,0,1-.74,0M149.21,13a1.84,1.84,0,0,1-.62-.12,2.22,2.22,0,0,1,1,0c.3.14.2.16-.42.09m0-.5a.85.85,0,0,1-.31,0,.91.91,0,0,1,.31-.06c.18,0,.31,0,.31,0s-.13.06-.31.06m-.86-.15c-.1,0,0-.06.2-.1s.34,0,.18,0a.73.73,0,0,1-.39.07m-.43,5a1.91,1.91,0,0,1-.62,0s.11,0,.28,0l.82,0c.34,0,.47,0,.34,0a5.15,5.15,0,0,1-.82.08m.55,13.7c-.16,0-.23,0-.14-.09s0-.08-.17-.09-.34,0-.34-.06a1.09,1.09,0,0,1,.46,0c.49,0,.65.25.18.24m-.68.41c-.62,0-.63-.05-.14-.1a2,2,0,0,1,.79,0c.35.11.15.13-.65.07M147.57,7.9c-.17,0-.09,0,.16-.05s.61-.05.77,0,.09,0-.15.05-.61.05-.77,0m.32,6.72c-.49,0-.59,0-.34-.06a2.86,2.86,0,0,1,.68,0q.77.09-.34.08m-.3-.41c-.25,0-.19,0,.19,0s.5,0,.4,0a3.17,3.17,0,0,1-.59,0m.09-1.27a1.79,1.79,0,0,1-.45-.05c-.09,0,0,0,.29,0a1.1,1.1,0,0,1,.45.05s-.12,0-.29,0m-1.51,4c-.22,0-.4,0-.4-.05a1.23,1.23,0,0,1,.51,0c.37,0,.44,0,.26,0s-.11-.07.29,0l.91.05a10.52,10.52,0,0,1-1.57.09m.73-4.22c-.25,0-.38-.06-.29-.08.27-.08.75,0,.75,0s-.19.06-.46,0M146.8,21a1.06,1.06,0,0,1-.46-.06,1.93,1.93,0,0,1,.93,0,1.06,1.06,0,0,1-.46.05M147,31c-.1,0-.11-.07,0-.11s.17,0,.18,0-.06.09-.16.07m-.47.57c-.18,0-.23,0-.12-.06a1.94,1.94,0,0,1,.49-.05c.18,0,.23,0,.12.06a2,2,0,0,1-.49.05m-.42-2.13c-.43,0-.71,0-.61-.06a5.26,5.26,0,0,1,1.4,0,3.55,3.55,0,0,1-.79,0m-1.62.21a3.21,3.21,0,0,0-.76,0c-.59,0-.61,0-.23-.06a4.45,4.45,0,0,1,1.54,0s.18,0,.43,0a3.09,3.09,0,0,1,.63,0c.11,0-.2.06-.66.08a5.11,5.11,0,0,1-1,0m1,2c-.28,0-.4,0-.29-.06a1.89,1.89,0,0,1,.48-.05c.18,0,.29,0,.29.06s-.2.05-.48.05m.07-23.45c-.18,0-.31,0-.31-.06s.13,0,.31,0a.89.89,0,0,1,.31.06.87.87,0,0,1-.31,0m-1.21,4.11c-.32-.06.15-.09.74,0s.56,0,0,.06a5.28,5.28,0,0,1-.75,0m.85.65c-.18,0-.31,0-.31-.06s.13,0,.31,0a.92.92,0,0,1,.31.06.85.85,0,0,1-.31,0m-.7,2.22c-.25,0-.18,0,.19,0s.5,0,.4,0a3.29,3.29,0,0,1-.59,0m.08,14.2c-.28,0-.39,0-.28,0a1.84,1.84,0,0,1,.46-.05c.44,0,.34,0-.19.08m-.76,1.37c-.4,0-.4,0,0-.06.25,0,.68-.05.93,0,.4,0,.4,0,0,.06-.25,0-.68.05-.93,0m.33.39c-.68,0-1.11-.17-.65-.25.25,0,.28,0,.14,0s-.08.1.08.09a2.62,2.62,0,0,1,1,.07,1.69,1.69,0,0,1-.59.05m-.77,3.53c-.23,0-.12,0,.4,0s.54.05.32.06a3.86,3.86,0,0,1-.72,0m.32.37c-.25,0-.18,0,.19,0s.5,0,.4,0a3.28,3.28,0,0,1-.59,0m-.43-22.22c-.22,0,0,0,.39,0s.6,0,.38,0a6.41,6.41,0,0,1-.77,0m.25-.22c0,.14-.63.17-.9,0-.1,0,0-.08.34-.09s.43,0-.09-.13-.56-.11,0-.07l.92,0c.25,0,.26,0,0,0s-.3.1-.28.16m.12,2c-.18,0-.31,0-.31,0s.13-.06.31-.06a.83.83,0,0,1,.31,0,.92.92,0,0,1-.31.06m-.11,14.72c-.18,0-.31,0-.31,0s.13-.06.31-.06a.87.87,0,0,1,.31,0,.9.9,0,0,1-.31.06m-.15,2.21c-.29,0-.38,0-.26-.13s.18-.12.42,0l.26.13h-.42m-.44-14.89c-.49,0-.59,0-.34-.06a2.79,2.79,0,0,1,.68,0q.77.09-.34.08m.18.14c-.28,0-.39,0-.28,0a1.81,1.81,0,0,1,.46-.05c.44,0,.34,0-.19.08m-.4-2.81c-.62,0-.76-.09-.41-.15a3.56,3.56,0,0,1,1,.17l-.6,0m-.36,7.29c-.49-.06-.09-.14.46-.1.31,0,.36.05.17.09a2.68,2.68,0,0,1-.63,0M142.73,32a1.2,1.2,0,0,1-.46,0,1.27,1.27,0,0,1,.46-.07,1.21,1.21,0,0,1,.46,0,1.24,1.24,0,0,1-.46.07m-.19-1.06c-.24,0-.29,0-.17.05s0,.09-.12.09-.21,0-.09.06.06,0-.15,0c-.42-.05-.44-.15-.07-.25a2.08,2.08,0,0,1,1,0,1.26,1.26,0,0,1-.35,0m-.27-18.08a1.1,1.1,0,0,1-.46,0,1.1,1.1,0,0,1,.46,0,2.5,2.5,0,0,1,.46,0,2.6,2.6,0,0,1-.46,0m-.43,2.41c-.25,0,.31-.13.62-.1s.15.05-.09.08a3,3,0,0,1-.53,0m.37,5.64c-.43,0-.8,0-.8-.09a2.21,2.21,0,0,1,.62,0c.71,0,.81.08.18.12m-.64-9.09c-.4,0-.67-.07-.49-.12s.74,0,.74.07-.1.05-.25,0m-.37,17.4c-.28,0-.4,0-.29-.06a1.89,1.89,0,0,1,.48-.05c.18,0,.29,0,.29.06s-.2.05-.48.05m-.93.54c-1.14,0-1.33,0-1-.07a7.92,7.92,0,0,1,1.17-.05c1.14,0,1.26,0,1.26.08a11.29,11.29,0,0,1-1.4,0m1.08,1.59c-.19,0-.31,0-.31-.06s.12-.06.31-.05.31,0,.31.06-.12.06-.31.05m-.37.26c-.31,0-.56,0-.55-.08s-.11-.08-.25-.08a4.36,4.36,0,0,1-1.29-.4,2.18,2.18,0,0,1,.62,0,1.35,1.35,0,0,1,.62.11s.12.08.28.08.21.05.12.11.48.22.84.12c.19-.06.25,0,.22,0s-.28.12-.6.12m.34,2.93c-.18,0-.31,0-.31-.06s.13,0,.31,0a.9.9,0,0,1,.31.06.88.88,0,0,1-.31,0m-.38.93c-.25,0-.18,0,.19,0s.5,0,.4,0a3.36,3.36,0,0,1-.59,0m.2,1.53a2.55,2.55,0,0,1-.46,0,2.6,2.6,0,0,1,.46,0,1.09,1.09,0,0,1,.46,0,1.09,1.09,0,0,1-.46,0M141,12.59a1.09,1.09,0,0,1-.46-.06,1.07,1.07,0,0,1,.46,0,2.71,2.71,0,0,1,.46.06,2.48,2.48,0,0,1-.46,0m-.76.22a1.8,1.8,0,0,1-.63-.13,1.37,1.37,0,0,1,.57,0,8.57,8.57,0,0,0,1,.11c.28,0,.3,0,.06,0a8.07,8.07,0,0,1-1,0m.48.74a2.64,2.64,0,0,0-.62,0c-.11,0-.2,0-.2-.06s.25-.08.59-.08.52,0,.43.09,0,.07.23.07.3,0,.18,0a2.69,2.69,0,0,1-.62,0m0,.31c-.68,0-.69,0-.09-.12s.65-.09.65,0-.22.1-.56.1m-.63,1.31c-.32-.06-.25-.06,1.14,0,.17,0,0,0-.26,0a5.08,5.08,0,0,1-.88,0m.55,16c-.37,0-.39-.2,0-.19s.63.12.44.18a1.16,1.16,0,0,1-.41,0m-.54-14c-.15,0-.28,0-.28-.08s.19-.07.46,0c.48,0,.34.13-.19.13M140,12.53a.85.85,0,0,1-.31,0,.92.92,0,0,1,.31-.06c.18,0,.31,0,.31,0s-.13.06-.31.06m-.17,1.14a2.59,2.59,0,0,1-.46-.06,2.46,2.46,0,0,1,.46,0,1.1,1.1,0,0,1,.46.06,1.07,1.07,0,0,1-.46,0m0,1.16c-.07,0-.12,0-.12-.08s.14-.08.29-.08.21,0,.12.08a.85.85,0,0,1-.29.08m-.81,16.75a6.12,6.12,0,0,0-1-.1l-.77,0H138a6.08,6.08,0,0,1,1,.06,1.78,1.78,0,0,0,.55,0c.24,0,.23,0,0,0a1.26,1.26,0,0,1-.62,0m0-18.76c-.22,0-.24-.07-.06-.07.4,0,.78.08.58.11a1.89,1.89,0,0,1-.52,0m.5,3.8a1.25,1.25,0,0,1-.32-.06c-.11,0,0-.06.14-.05s.32,0,.32.06-.06.06-.14.05m-.63-3.06c-.74,0-.81,0-.12-.07a1.93,1.93,0,0,1,.62,0,1.29,1.29,0,0,1-.49.08m-.62.41c-.86-.08-.68-.16.34-.15.56,0,.68,0,.55.11s-.28.1-.89,0m-.42-1.39a4.5,4.5,0,0,1-.62,0,4.24,4.24,0,0,1,.62,0,1.94,1.94,0,0,1,.62,0,2,2,0,0,1-.62,0m-.63.81c-.18,0-.31,0-.31,0s.13-.06.31-.06a.87.87,0,0,1,.31,0,.9.9,0,0,1-.31.06m-.76,16.42c-.18,0-.29,0-.29-.06s.2-.05.48-.05.4,0,.29.06a1.88,1.88,0,0,1-.48.05M136,31.45c-.22,0,0,0,.39,0s.6,0,.39,0a6.32,6.32,0,0,1-.77,0m.67,3.77a1.88,1.88,0,0,1-.48-.06c-.11,0,0-.06.29-.05s.48,0,.48.06-.12.05-.29.05m-.35,2.68a1.76,1.76,0,0,1-.62-.06,3.43,3.43,0,0,1,1.23,0,1.77,1.77,0,0,1-.62.05m-.1-3.08a1.25,1.25,0,0,1-.32-.06c-.11,0,0-.06.14-.05s.32,0,.32.06-.06.06-.14.05m-.28-22.25a1.29,1.29,0,0,1-.46,0c-.1,0,0-.06.28-.05.56,0,.63,0,.18.08m-.7,17.18c-.1,0,.06-.08.37-.13.52-.09.53-.08.18,0a1.44,1.44,0,0,1-.56.09m-.19,5.6c-.25,0-.18,0,.19,0s.5,0,.4,0a3.29,3.29,0,0,1-.59,0m0,1.61c-.17,0-.31,0-.31-.06s.14-.07.31-.05a1,1,0,0,1,.31.06,1,1,0,0,1-.31.05m-.25-5.55a1.32,1.32,0,0,1-.46,0c-.1,0,0-.06.28-.05.56,0,.63,0,.18.08M134,13c-.22,0,0,0,.39,0s.6,0,.39,0a6.3,6.3,0,0,1-.77,0m.54,18.66a.87.87,0,0,1-.31,0,.92.92,0,0,1,.31-.06c.18,0,.31,0,.31,0s-.13.06-.31.06m-.77-18.4a3.83,3.83,0,0,1-.79,0,1.38,1.38,0,0,0-.46,0c-.17,0-.21,0-.11-.06a1,1,0,0,1,.56,0,7.29,7.29,0,0,0,1.09,0c.46,0,.65,0,.52,0a5.16,5.16,0,0,1-.82.08m.12,16.37c-.25,0-.18,0,.19,0s.5,0,.4,0a3.25,3.25,0,0,1-.59,0m.34,5.28c-.37,0-.76-.11-.54-.15a1.66,1.66,0,0,1,.82.11s-.11,0-.28,0m0,.39a.87.87,0,0,1-.31,0,.89.89,0,0,1,.31-.06c.18,0,.31,0,.31,0s-.13.06-.31.06m0,.31c-.18,0-.31,0-.31,0s-.13.06-.29.06-.21,0-.12-.08,1-.11,1,0-.14,0-.31,0m.06-22.19a1.31,1.31,0,0,1-.32-.06c-.11,0,0-.06.14-.05s.32,0,.32.06-.06.06-.14.06m-1,22.49c-.19,0-.24,0-.12-.06a2,2,0,0,1,.49-.05c.19,0,.23,0,.12.06a1.93,1.93,0,0,1-.49.05m-.07-4.25a1,1,0,0,1-.46-.06s.17,0,.35,0,.3,0,.16-.05-.07-.08.11-.06c.48.06.37.2-.16.19m-.57,3.62c-.25,0-.18,0,.19,0s.5,0,.4,0a3.28,3.28,0,0,1-.59,0m-1-3.65c-.08,0,0-.06.08-.09a.83.83,0,0,1,.5,0c.25.07-.24.14-.58.07M132,35.4c-.06,0-.4,0-.77,0a2.93,2.93,0,0,1-1.08,0c-.24-.06-.26-.08,0-.06a1.86,1.86,0,0,0,.65,0,2.13,2.13,0,0,1,1,0c.37,0,.62.09.54.1a1,1,0,0,1-.26,0M131.56,13c-.25,0-.18,0,.19,0s.5,0,.4,0a3.23,3.23,0,0,1-.59,0m.08,16.53c-.25,0-.46,0-.46-.08s.53-.15.72-.07.2.15-.25.15m.09,5.71c-.18,0-.31,0-.31-.09s.13-.07.31-.05.31.06.31.09-.12.05-.31.05m-.88-5.55c-.18,0-.29,0-.29-.06s.2-.05.48-.05.4,0,.29.06a1.94,1.94,0,0,1-.48.05m.31,1.49c-.18,0-.31-.06-.31-.1s.12,0,.3,0c.38.11.38.13,0,.09m-.51,3.94c-.25,0-.46,0-.46.07s-.22.07-.62,0a1.42,1.42,0,0,1-.62-.11s-.08-.12-.2-.17-.06-.09.23-.07.39.08.32.16,0,.12.31.1.38-.05.34-.09.2-.06.54-.06a1.75,1.75,0,0,1,.62.06,1,1,0,0,1-.46.05m-.09-5.74a1.3,1.3,0,0,1-.46,0c-.1,0,0-.06.28-.05.56,0,.63,0,.18.08M129.32,13.5a1.24,1.24,0,0,1-.32-.06c-.11,0,0-.06.14-.05s.32,0,.32.06-.06.06-.14.05m-.5,22a1.53,1.53,0,0,0-.56,0,.37.37,0,0,1-.31,0c-.14-.07,0-.1.36-.09a2.37,2.37,0,0,1,1,.11,2.19,2.19,0,0,1-.45,0M128,31.25c-.86,0-1-.06-.15-.12.56,0,.71,0,.71,0s-.25.08-.56.1m-.53,4.82c-.1.13-.31.16-.73.11s.77-.3,1.36-.3c.19,0,.14,0-.11.05a1.23,1.23,0,0,0-.52.14m-.25-.85c-.63,0-.55-.08.19-.07.34,0,.53,0,.43.06a2.32,2.32,0,0,1-.62,0m-.68.51c-.3-.06.16-.1.56-.05s.31.05,0,.07a3.25,3.25,0,0,1-.57,0m0-4.46c-.16,0-.31,0-.31-.09s.15-.08.31-.08.31,0,.31.09-.14.08-.31.08m.12,4.2a1.26,1.26,0,0,1-.32-.06c-.1,0,0-.06.14-.05s.32,0,.32.06-.06.06-.14.05m-.94.19c-.57.1-.9.09-.67,0s0-.08-.5-.08-.5,0-.29,0,.38.08.38.14-.22.1-1.24.1a7.46,7.46,0,0,0-1.23,0,4.28,4.28,0,0,1-.93.08c-.52,0-.85.05-.76.08.29.09-.73.11-1.68,0-.77-.06-.9-.05-.76,0a7.39,7.39,0,0,0,1.71.1c.15,0,.25,0,.25.05a4.41,4.41,0,0,1-1.33.12,2.81,2.81,0,0,0-.59,0,10.11,10.11,0,0,1-1.06,0,4.34,4.34,0,0,0-.86,0,2.16,2.16,0,0,1-.51.05c-.19,0-.23,0-.12-.06s0-.06-.14-.06-.32,0-.32,0-1.51,0-2.16,0c-.25,0,2.28-.16,2.81-.16.28,0,.48,0,.46-.09s.31-.1.74-.12.61,0,.4,0c-.66,0-.71-.21-.11-.42.43-.15.63-.18.77-.11a1.13,1.13,0,0,0,.52.05,2.05,2.05,0,0,1,.65,0c.21.06.25,0,.11-.08l-.2-.16.83.19.83.19.57-.13a1.61,1.61,0,0,0,.58-.19,2,2,0,0,1,.92,0,1,1,0,0,1-.3.22c-.18.11-.18.18,0,.18s.3-.06.31-.12,0-.12.46,0c.25.06.45.08.45,0s-.14-.08-.29-.1-.21-.07-.11-.12a3.06,3.06,0,0,1,1.08,0c.56,0,.82,0,.71,0s0-.06.32-.05.45,0,.34.09,0,.08.11.09c.42,0,.37.05-.16.14m.15.47a.86.86,0,0,1-.31,0,.9.9,0,0,1,.31-.06c.18,0,.31,0,.31,0s-.13.06-.31.06m-1.93-16.91c-.43.06-.48.06-.26,0s.09-.06-.4,0-.66,0-.66,0,.13,0,.29,0a1.45,1.45,0,0,0,.48,0,2.7,2.7,0,0,1,.65,0c.56,0,.55.05-.09.14m-.09,15.48c-.1,0-.11-.07,0-.11s.17,0,.18,0-.06.09-.15.07m-.3,1.64a1.07,1.07,0,0,1-.46-.06,1.05,1.05,0,0,1,.46-.05,1,1,0,0,1,.46.06,1.05,1.05,0,0,1-.46.05m-1.14-1.2c-.22,0,0,0,.39,0s.6,0,.38,0a6.32,6.32,0,0,1-.77,0M121.19,19.2c-.77,0-1.16-.15-.55-.17s1.44.05,1.28.13a2.59,2.59,0,0,1-.73,0m.49.39c-.18,0-.31,0-.31-.06s.13,0,.31,0a.92.92,0,0,1,.31.06.83.83,0,0,1-.31,0M120.89,21c-.52,0-.62-.09-.15-.14s1,0,.75.1a2.88,2.88,0,0,1-.6,0m-.48-1.6c-.43-.05-.31-.14.19-.14.26,0,.36,0,.26.09a1,1,0,0,1-.45,0m-1-.2a1.28,1.28,0,0,1-.32-.06c-.11,0,0-.06.14-.05s.32,0,.32.06-.06.06-.14.06m-.86,1.92c-.13,0-.16-.06-.07-.11s.39-.1.34,0-.15.09-.27.08m-1.5.3c-.18,0-.31,0-.31-.06s.13,0,.31,0a.88.88,0,0,1,.31.06.87.87,0,0,1-.31,0m-1.64-2.14c-.8,0-.56,0,.59-.07.68,0,.8,0,.46,0s-.74.05-1,0M115.72,36H115c-.13,0-.23,0-.23.05s-.12,0-.28,0a9.52,9.52,0,0,0-1.11,0,5.83,5.83,0,0,1-1.28,0c-.34-.05-.42-.05-.35,0s-.06.08-.23.09-.32,0-.32-.1.1-.11.23-.11.15,0,.06-.08,0-.08.32-.08h.73a.85.85,0,0,1,.35.07c.08,0,0,.06-.39,0a1.26,1.26,0,0,0-.51,0,1.93,1.93,0,0,0,.65.06c.54,0,.62,0,.46-.14s-.14-.14,1.44-.12c.89,0,1.71,0,1.82.08.31.09,0,.2-.63.21m-.84-14.84a.86.86,0,0,1-.31,0,1,1,0,0,1,.31-.06c.18,0,.31,0,.31,0s-.13.06-.31.06m-2.94,14.31c-.22,0-.24-.07-.06-.07.4,0,.78.08.58.11a1.9,1.9,0,0,1-.52,0m-.34,1.28c-.3-.06-.26-.06.17,0s.48.06.38.07a2,2,0,0,1-.56,0M112,2.32c-.18,0-.31,0-.31-.06s.12-.05.31-.05.31,0,.31.06-.12.05-.31.05m-.81,19.13c-.7,0-.95-.11-.61-.26s.25-.09.26,0,.29.11.63.14c.72,0,.52.14-.28.14m.48-1.34a3.6,3.6,0,0,1-.49-.09c-.3-.07-.28-.09.12-.08s.49,0,.49.09-.06.08-.12.08m-.31,16.34c-.18,0-.31,0-.31-.06s.12-.06.31-.08.31,0,.31.06-.13.09-.31.08m-.42-34.31a1.27,1.27,0,0,1-.32-.06c-.1,0,0-.06.14-.05s.32,0,.32.06-.06.06-.14.05m-.53,18c-.25,0-.39-.09-.31-.1s.77.05.77.12-.19,0-.46,0m-.34,1.5c-.46,0-.71,0-.6-.05a4.86,4.86,0,0,1,1.38,0,3.51,3.51,0,0,1-.79,0m-.79-1.26c-.16,0-.26-.05-.26-.08s.11-.05.26-.05.26,0,.26.08-.12.07-.26.05m-.83,1.17c-.21,0,.25-.14.62-.13.18,0,.15,0-.08.08a2.06,2.06,0,0,1-.54.05m-.22,13.78c-.25,0-.18,0,.19,0s.5,0,.4,0a3.29,3.29,0,0,1-.59,0m-.57,1.1c-.18,0-.31,0-.31,0s.13-.06.31-.06a.85.85,0,0,1,.31,0,.91.91,0,0,1-.31.06m-.77-.22c-.28,0-.43,0-.34,0s0,.08-.1.12c-.3.08-1,0-1-.09a4.29,4.29,0,0,1,1.54-.1c.48.06.37.1-.16.06m-2.34-14.77a1.25,1.25,0,0,1-.32-.06c-.11,0,0-.06.14-.06s.32,0,.32.06-.06.06-.14.05m-.44,15.25a1.8,1.8,0,0,1-.4-.1c-.23-.08-.17-.1.26-.11s.51,0,.4.1a.57.57,0,0,1-.26.11m-.62-17.8c-.18,0-.31,0-.31,0s.13-.06.31-.06a.85.85,0,0,1,.31,0,.91.91,0,0,1-.31.06m-1.42,2.72c-.51,0-.53,0-.26-.1s.73-.11.73,0-.22.09-.46.11m-.85,14.88a1.83,1.83,0,0,1-.45-.05c-.09,0,0,0,.29,0a1.09,1.09,0,0,1,.45.05s-.12,0-.29,0m-.36-14.86a1.26,1.26,0,0,1-.32-.06c-.11,0,0-.06.14-.05s.32,0,.32.06-.06.06-.14.05m-2.6,11.31c-.16,0-.09,0,.15-.05s.61-.05.77,0,.09,0-.15.05-.61.05-.77,0m-2.42,2.9c-.3-.06-.26-.06.17,0s.48.06.38.07a2,2,0,0,1-.55,0m-1.28-.13a1.8,1.8,0,0,0-.56.06,2.68,2.68,0,0,1-.73,0c-.48,0-.39,0,.48-.11.59,0,.88-.09.65-.09s-.37,0-.28,0a4,4,0,0,1,.65,0c.58,0,.43.14-.22.13m-2.69-2.17c-.25,0-.18,0,.19,0s.5,0,.4,0a3.28,3.28,0,0,1-.59,0m-1.68,2.86c-.28,0-.4,0-.29-.06a1.88,1.88,0,0,1,.48-.05c.18,0,.29,0,.29.06s-.2.05-.48.05M89,33.5a1.08,1.08,0,0,1-.46,0,1.11,1.11,0,0,1,.46,0,2.53,2.53,0,0,1,.46,0,2.46,2.46,0,0,1-.46,0m-2.63.39c-.56,0-.86-.1-.37-.1l1,0c.62,0,.68,0,.37.06a5.53,5.53,0,0,1-1,.06m-.31-.21c-.18,0-.31,0-.31-.06s.12-.05.31-.05.31,0,.31.06-.12.05-.31.05m-.77,1.56a1.31,1.31,0,0,1-.32-.06c-.11,0,0-.06.14-.05s.32,0,.32.06-.06.06-.14.05m-1.7.35c-.43-.09-.43-.09,0-.06a2.9,2.9,0,0,0,.71,0c.11,0,0-.06-.26-.06a3.36,3.36,0,0,1-.63-.06c-.33-.1.93,0,1.42.09s.48.12-.14.16a4.51,4.51,0,0,1-1.12-.05m.28.84a1.32,1.32,0,0,1-.46,0c-.1,0,0-.06.28-.05.56,0,.63,0,.18.08m-1.69-2.78c-.25,0-.43,0-.43-.06s-.13,0-.31,0-.22,0-.11-.06a4.17,4.17,0,0,1,1.5,0c.37,0,.4.06.14.11a4.35,4.35,0,0,1-.79.07m-.43.14c-.18,0-.31,0-.31,0s.13-.06.31-.06a.86.86,0,0,1,.31,0,.93.93,0,0,1-.31.06m-1.47,2c-.3-.06.15-.1.56-.05s.31.05,0,.07a3.19,3.19,0,0,1-.57,0m-.21-2.16a1.29,1.29,0,0,1-.32-.06c-.11,0,0-.06.14-.06s.32,0,.32.06-.06.06-.14.05M78.93,36a7.39,7.39,0,0,1-.92,0,10.94,10.94,0,0,1,1.64-.08c.51.06.15.11-.71.11m-.73-.42c-.64,0-.34-.13.37-.1l.83,0c.17,0,.08,0-.2.06a7,7,0,0,1-1,0m.61.26c-.21,0-.4,0-.4-.08s.22-.06.56,0c.61,0,.49.13-.16.12m-.3-.51a.85.85,0,0,1-.29-.09c-.09,0,0-.08.12-.08s.29,0,.29.09-.06.08-.12.08m-1.56.32c-.06,0-.07,0,0-.1a.74.74,0,0,0,.13-.17,1,1,0,0,1,.51-.07c.43,0,.43,0,0,.17a3.66,3.66,0,0,1-.6.16m-.48.22a4.08,4.08,0,0,1-1.54-.15s.26-.06.69,0,.51,0,.31,0-.32-.06-.23-.08-.12,0-.46,0-.57,0-.43-.07a3.22,3.22,0,0,1,.9-.08c.56,0,.75,0,.91.21a.67.67,0,0,0,.54.16c.21,0,.26,0,.12,0a4.15,4.15,0,0,1-.8.06m-2.62.22c-.73-.06,0-.13.83-.08.52,0,.55,0,.15.08a7.42,7.42,0,0,1-1,0M74,35.5c-.17,0-.31,0-.31.05a5.43,5.43,0,0,1-1.7.07,24.68,24.68,0,0,0-2.78,0,3.43,3.43,0,0,1-.76,0,3.48,3.48,0,0,0-.82,0,2.62,2.62,0,0,1-.69,0c-.11,0,0-.05.19-.06s.39,0,.39-.07a5.8,5.8,0,0,0-1.54.12,1.79,1.79,0,0,1-.62,0c-.34,0-.54,0-.45,0s.07.05-.08.05A24.53,24.53,0,0,1,61,35.75c-.23-.06-.26-.05-.15,0s.06.12-.17.07a3.85,3.85,0,0,0-.8,0c-.28,0-.39,0-.28,0s-.2-.07-.79-.1a7.7,7.7,0,0,0-1.16,0c-.16,0-3,.15-3.87.14a1,1,0,0,1-.46-.06s.12,0,.28,0c.4,0,1.31,0,1.1-.08s3.22-.15,5.53-.11a6.76,6.76,0,0,0,1.16-.06.83.83,0,0,1,.54,0,.81.81,0,0,0,.49,0,2.66,2.66,0,0,1,.71,0c.43,0,1,0,1-.15a18.65,18.65,0,0,0-2.41,0c-.22,0-.37,0-.37,0s.49-.12,2.47-.13a9,9,0,0,1,2.05.08,19.47,19.47,0,0,0,3.44,0,7.91,7.91,0,0,1,1.19,0c.59,0,.68,0,.37.08s0,0,.6,0c1.94-.05,2.84,0,2.84.09s-.14.07-.31.05m-1.85-.21c-.18,0-.31,0-.31-.06s.12-.05.31-.05.31,0,.31.06-.12.05-.31.05m-2.69.92a7.15,7.15,0,0,1-1,0c-.23,0,.65-.13,1-.1.14,0,.25,0,.25-.06S69.81,36,70,36c.64,0,.28.16-.53.21M68.57,2.14c-.55,0-.43-.09.13-.12.31,0,.45,0,.37,0a1.59,1.59,0,0,1-.49.08m-2.07,34a1.41,1.41,0,0,1-.52,0,1.85,1.85,0,0,1,.62,0,1.76,1.76,0,0,0,.62-.05,1,1,0,0,1,.46-.05c.68,0-.43.19-1.17.2M67.9,3.1A1.89,1.89,0,0,1,67.42,3c-.11,0,0-.06.29-.05s.48,0,.48.06-.12.05-.29.05m-4.79-.72c-2.19,0-3.53-.13-1.54-.13,3,0,3.73,0,4.13,0,.78.06-.59.11-2.59.1M65,36.18c-.49,0-.59,0-.34-.06a2.86,2.86,0,0,1,.68,0q.77.09-.34.08m-2.8-34L60,2.13h-.62c-.18,0-.15,0,.06-.06s1.42-.06,4.23,0c1.61,0,.37.11-1.51.1m-.1.86a8.68,8.68,0,0,0-1.14-.09c-1.57,0-1.26-.08.62-.06,1.73,0,1.79,0,1.28.11a2.16,2.16,0,0,1-.76,0m-.84,13.76c-.18,0-.31,0-.31,0s.13-.06.31-.06a.87.87,0,0,1,.31,0,.91.91,0,0,1-.31.06M61.4,18a1.28,1.28,0,0,1-.32-.06c-.11,0,0-.06.14-.06s.32,0,.32.06-.06.06-.14.05M60.14,36.73q-1,0-.82,0a1.51,1.51,0,0,1,.49,0c.18,0,.29,0,.29,0a2,2,0,0,1,.62,0c1,0,.52.12-.59.13m0-1.27c-1,0-1.09-.1-.15-.19a1.91,1.91,0,0,1,.81,0c.46.14.33.17-.66.16m-.48,1.47a7.34,7.34,0,0,1-1,0c-.52-.06-.46-.06.8-.08.8,0,.94.06.22.11M59,17.78c-.25,0-.18,0,.18,0s.5,0,.4,0a3.35,3.35,0,0,1-.59,0m-.66,18.09c-.3-.06.16-.1.56-.05s.31.05,0,.07a3.19,3.19,0,0,1-.57,0m.08-.42a1.31,1.31,0,0,1-.32-.06c-.11,0,0-.06.14-.05s.32,0,.32.06-.06.06-.14.06m-1,1c-1.08,0-1.52,0-1.2-.07a14.94,14.94,0,0,1,2,0c.62,0,0,.11-.77.11M56.57,2.19c-2.56,0-5.13,0-5.46-.09a1.72,1.72,0,0,0-.63,0,3.4,3.4,0,0,1-.88,0C48.85,2.12,49,2,49.78,2c1.57,0,2,0,3.39,0a7.89,7.89,0,0,0,1.48,0s.1,0,.18,0a1,1,0,0,0,.59,0,5.16,5.16,0,0,1,.89,0c.25,0,.46,0,.46,0s.09,0,.37,0a7,7,0,0,0,1,.08c1.28,0,.15.07-1.57.08m.15,35.2a1.89,1.89,0,0,1-.48-.06c-.11,0,0-.06.29-.05s.48,0,.48.06-.12.05-.29.05m-4.63-1.16a.88.88,0,0,1-.31,0,.9.9,0,0,1,.31-.06c.18,0,.31,0,.31,0s-.13.06-.31.06m-.61-.4c-.19,0-.31,0-.31-.06s.12-.06.31-.05.31,0,.31.06-.12.05-.31.05m-.6-1.63c-.18,0-.31,0-.31-.06s.12-.05.31-.05.31,0,.31.06-.12.06-.31.05m-.51,1.56c-.25,0-.38,0-.28-.06a1.3,1.3,0,0,1,.46,0c.44.05.37.08-.19.08M49.29,30c-.12,0-.23-.06-.23-.11s-.14-.07-.31-.05-.25,0-.17.08-.26,0-.76,0c-1,0-1.38-.11-.76-.25a1.36,1.36,0,0,1,.88,0,1.35,1.35,0,0,0,.65,0,3.44,3.44,0,0,1,.79,0,4,4,0,0,0,.69,0c.07,0,.09,0,0,0s0,.1.18.14.11.09-.26.11a7,7,0,0,1-.76,0m.77,5a9.63,9.63,0,0,0-1.22.06,6.24,6.24,0,0,1-1.22,0c-.11,0-.08-.05.08-.05s.29,0,.31-.1-.08-.1-.91-.06a7.78,7.78,0,0,1-1.43,0c-.37-.06-.42-.06-.25,0s0,.08-.28.1c-.46,0-.46,0,0,.09.62.07.63.16,0,.16a1,1,0,0,1-.46-.06,2.68,2.68,0,0,0-.77-.06c-.89,0-1-.05-.21-.15.46-.06.42-.06-.35,0a10.27,10.27,0,0,1-1.16,0c-.16,0-.28,0-.28.06s.13.08.29.06a1.33,1.33,0,0,1,.46,0c.1,0,0,.07-.14.09-.4,0-1.3-.12-1-.18.12,0-.1,0-.47,0a2.51,2.51,0,0,1-.69,0s-.14-.05-.32-.05-.22,0,0,.11.24.12-.16.14a4,4,0,0,1-.68,0c-.1,0,0,0,.17,0s.35,0,.36-.06-.11,0-.25,0a11.51,11.51,0,0,1-1.91,0,4.11,4.11,0,0,1,.93,0,3.7,3.7,0,0,0,.93,0,1,1,0,0,0-.45-.06c-.25,0-.38,0-.29-.08a3.15,3.15,0,0,1,.94,0,4.52,4.52,0,0,0,1,0,1.93,1.93,0,0,1,.86,0,9.44,9.44,0,0,0,1.17.06l1.71-.06a9.18,9.18,0,0,1,1.23,0c.05,0,.77.07,1.63.09,1.26,0,2.34.08,2.84.11,0,0,.09,0,.09.07s-.09,0-.19,0M48.84,37a1.22,1.22,0,0,0-.46,0,1.51,1.51,0,0,1-.52,0c-.72,0-.68-.11.06-.12a5.14,5.14,0,0,1,1.39.08,1.69,1.69,0,0,1-.46,0m-1-.36c-.77,0-1,0-1-.06s.2-.08.69,0l1.13,0c.68,0,.28,0-.83.07m-1.21.61c-.43,0-.69-.06-.58-.07a17.44,17.44,0,0,1,2.13,0c.5.06-.74.13-1.54.09m1.16-1.36c-.19,0-.31,0-.31-.06s.12-.07.31-.08.31,0,.31.06-.13.09-.31.08M46.54,2.18c-1.63,0-1.82-.06-.4-.09a11.5,11.5,0,0,1,2,.08s-.71,0-1.6,0M44.38,36c-.15,0-.2,0-.11-.09a1,1,0,0,1,.45,0c.31,0,.06.14-.34.13m-1.07-.51a8.57,8.57,0,0,1-1.23-.07c-.11,0,.31,0,1,0,1.51,0,1.67.11.18.1m0-5.46a1.09,1.09,0,0,1-.46-.06,1.09,1.09,0,0,1,.46,0,2.46,2.46,0,0,1,.46.06,2.6,2.6,0,0,1-.46,0m-1.49,4.5c-.74,0-.88-.07-.52-.1a12.23,12.23,0,0,1,1.39,0c1.15.09.49.14-.86.06m1.28,1.17c-.19,0-.31,0-.31-.06s.12-.05.31-.05.31,0,.31.06-.12.05-.31.05m-1.48.58c-.32-.06.15-.09.74,0s.56,0,0,.06a5.4,5.4,0,0,1-.75,0m.27-6.33a.54.54,0,0,0-.45,0,2.34,2.34,0,0,1-.71.09c-.43,0-.44,0,0-.06s.26-.05-.39,0a7.35,7.35,0,0,1-1,0,4.28,4.28,0,0,0-.77,0,2.33,2.33,0,0,1-.8-.07,1.57,1.57,0,0,0-.62-.06c-.25,0-.43,0-.43,0a3.35,3.35,0,0,1,1.42,0c.34.08.41.09.35,0s.07-.08.25-.07l2,.06,1.74,0s0,0-.13.09a.49.49,0,0,1-.43,0m-.42,5.73a3.51,3.51,0,0,1-.9,0c-.4-.12-.24-.15.38-.09.43,0,.62,0,.62,0s.13-.06.31-.06c.59,0,.31.12-.4.16m-2.21-1c-.34,0-.44,0-.23,0s.33,0,.25-.07.22,0,.65,0c.59,0,.68,0,.37.08a10.29,10.29,0,0,1-1,0m.82-4.49a1.86,1.86,0,0,1-.48-.06c-.11,0,0-.06.29-.05s.48,0,.48.06-.12.06-.29.05M40.05,2H39A4.66,4.66,0,0,1,38.06,2c-.1,0,0,0,.15,0a1.83,1.83,0,0,0,.65-.06c.19-.06.32-.07.32,0s.23.06.63,0a1.66,1.66,0,0,1,.62,0s-.17.06-.39.06M38.88,30.23c-.17,0-.31,0-.31-.06s.14-.07.31-.05a1,1,0,0,1,.31.06,1,1,0,0,1-.31.05m-.2,5.31c-.25,0-.46,0-.46-.09s.19-.07.46,0a1.2,1.2,0,0,1,.46.08,1.17,1.17,0,0,1-.46,0m-.49-.8c-.38-.12-.88-.09-.89.06s-.34.17-1.17.12c-.62,0-.63,0-.17-.1s.45-.11.34-.19-.08-.11.23-.06a8.67,8.67,0,0,0,1.2,0c.68,0,.8,0,.78.1s0,.11-.33,0m-1.51.51c-.18,0-.31,0-.31-.06s.12-.05.31-.05.31,0,.31.06-.12.06-.31.05M36,1.86a1.26,1.26,0,0,1-.32-.06c-.11,0,0-.06.14-.05s.32,0,.32.06-.06.06-.14.05M34.71,35.1a3.12,3.12,0,0,1-.9-.06,8,8,0,0,1,1.94.06h-1m-.35-.44c-.09,0,.08,0,.39-.07s.47,0,.17,0a2,2,0,0,1-.56,0m-.16-4.9c-.25,0-.18,0,.19,0s.5,0,.4,0a3.29,3.29,0,0,1-.59,0m-1.92,6.07c-.56,0-.6,0-.23-.06.59-.06.93-.06.93,0a2.33,2.33,0,0,1-.69,0m-2.08-.35a.87.87,0,0,1-.31,0,.88.88,0,0,1,.31-.06c.18,0,.31,0,.31,0s-.13.06-.31.06M23,20.6l-.85,0c-.53,0-.53,0-.06-.06s1.18-.12,1.18,0-.11.05-.28.05m-.81,15c-.18,0-.31,0-.31-.06s.12-.06.31-.05.31,0,.31.06-.12.05-.31.05m-1.72-.46c-.25,0-.43,0-.43-.06a1.76,1.76,0,0,1,.59,0c.66,0,.52.1-.16.1m-1,0c-.18,0-.31,0-.31-.06s.13,0,.31,0a.92.92,0,0,1,.31.06.84.84,0,0,1-.31,0m-.49-12.54c-.18,0-.31,0-.31,0s.13-.06.31-.06a.84.84,0,0,1,.31,0,.92.92,0,0,1-.31.06m-.75,12.56c-.17,0-.31-.09-.31-.16s.06-.11.3,0c.4.12.41.24,0,.2M17.75,19c-.15,0-.21,0-.14.1s-.14.14-.63.19c-.65.07-.75.07-.6,0a1.2,1.2,0,0,1,.43-.08c.14,0,.2-.06.13-.14s.05-.16.48-.19.62,0,.62,0-.12.09-.28.08m-1-2.81c-.27-.08-.11-.16.31-.16.16,0,.2.05.11.12a.44.44,0,0,1-.42,0m-.16,3.36a1.1,1.1,0,0,1-.46-.06,1.09,1.09,0,0,1,.46,0,2.56,2.56,0,0,1,.46.06,2.55,2.55,0,0,1-.46,0M16,18.27c-.25,0-.38-.06-.29-.08s.75,0,.75.07a1.14,1.14,0,0,1-.46,0m.32.77A1.26,1.26,0,0,1,16,19c-.11,0,0-.06.14-.05s.32,0,.32.06-.06.06-.14.05m-.5,16.42a1.11,1.11,0,0,1-.46-.06,1.09,1.09,0,0,1,.46,0,2.51,2.51,0,0,1,.46.06,2.61,2.61,0,0,1-.46,0m-.08-16.67a3.46,3.46,0,0,1-.78,0c-.44,0-.56,0-.54.09s-.15.13-.36.15-.38,0-.38-.12.22-.16.8-.19.72-.07.46-.13-.17-.1.33-.18.57-.07.45,0-.11.07,0,.07c.3,0,.3.23,0,.32m-.49,12.52a1.16,1.16,0,0,1-.46-.05c0-.07.49-.12.74-.07s.21.13-.28.13m-.83-.17a2,2,0,0,1-.8,0,2.76,2.76,0,0,0-.72-.07c-.34,0-.52,0-.41-.06a5.92,5.92,0,0,1,1.73,0c0,.06.06.06.18,0s.72-.09.72,0a2.22,2.22,0,0,1-.68.12m-.25.46c-.68,0-.88-.05-.25-.09.23,0,.09,0-.31,0s-.64,0-.54-.06-.11,0-.42,0a2.54,2.54,0,0,1-1.09-.16c-.29-.1-.41-.2-.29-.22a.68.68,0,0,1,.36,0,1.76,1.76,0,0,0,.57.07.87.87,0,0,1,.46.07c0,.06.06.06.19,0a2.81,2.81,0,0,1,1,.11c1.06.22,1.11.26.28.29m0,4.21c-.18,0-.31,0-.31,0s.13-.06.31-.06a.87.87,0,0,1,.31,0,.9.9,0,0,1-.31.06m-.66-15.88c-.34,0-.43,0-.28,0s.08.06-.06.06-.28-.06-.28-.14.36-.18.8,0,.41.13-.18.09M13.2,35.38c-.34,0-.53,0-.43-.06a2.34,2.34,0,0,1,.62,0c.63,0,.55.08-.19.07m-.82-12.7c-.25,0-.18,0,.19,0s.5,0,.4,0a3.16,3.16,0,0,1-.59,0m0-.21c-.18,0-.22,0-.12-.05s0-.07-.14-.09c-.45-.05-.37-.14.13-.14.26,0,.43.06.43.14s-.13.14-.29.14m-.31,10.69c-.28-.05-.34-.2-.09-.2.43,0,.62.07.45.15a.69.69,0,0,1-.36,0m-.37,2.66a6.64,6.64,0,0,1-1.88-.14s.17,0,.39,0,.83,0,1.39,0a4.1,4.1,0,0,1,1,.05,3.26,3.26,0,0,1-.89.05m-.09-.41c-.25,0-.18,0,.19,0s.5,0,.4,0a3.16,3.16,0,0,1-.59,0M11.92,14c-.18,0-.31,0-.31,0s.13-.06.31-.06a.84.84,0,0,1,.31,0,.92.92,0,0,1-.31.06m-.06,6.41c-.16,0-.21,0-.12-.08a.85.85,0,0,1,.29-.08c.07,0,.12,0,.12.08s-.14.08-.29.08m-.81,11.48c-.25,0-.18,0,.19,0s.5,0,.4,0a3.35,3.35,0,0,1-.59,0M10.52,26c0,.07-.07.08-.2,0a4.53,4.53,0,0,0-.74-.2c-.44-.09-.49-.13-.21-.19a3.35,3.35,0,0,1,1.47,0c.43.09.45.12.12.17a.82.82,0,0,0-.43.16m0,7.17-1.1,0c-.13,0-.15,0,0-.07a.66.66,0,0,1,.43,0,.49.49,0,0,0,.41,0c.26-.12,1.14-.1,1.14,0s-.23.1-.85.08m.35-12.47c-.26.07-.3.07-.3,0s-.26-.1-.69-.11-.51,0-.31,0,.31,0,.22-.08.07-.06.78,0,.7.1.3.21m-.41,4.6c-.22,0-.24-.07-.06-.07.4,0,.78.08.58.11a1.93,1.93,0,0,1-.52,0m-.79,6.68q-.79,0-.48-.09a3.33,3.33,0,0,1,1.26.07,3.12,3.12,0,0,1-.79,0m.38,3.56c-.55,0-.62-.14-.09-.14.25,0,.46,0,.46.08s-.17.07-.37.05m-.71-1.57c-.09,0,.08,0,.39-.07s.47,0,.17,0a2,2,0,0,1-.55,0M9.42,11c-.14,0-.25-.05-.25-.11s.11-.11.25-.11.25.05.25.11-.11.11-.25.11M8.25,34c-.25,0-.18,0,.19,0s.5,0,.4,0a3.35,3.35,0,0,1-.59,0m-.21-4c-.17,0-.31,0-.31-.09s.14-.08.31-.08.31,0,.31.09-.14.08-.31.08m-.61.92c-.19,0-.31,0-.31-.06s.12-.05.31-.05.31,0,.31.06-.12.05-.31.05m-.86-9.49c-.18,0-.23,0-.12-.06a1.93,1.93,0,0,1,.49-.05c.18,0,.23,0,.12.06a2,2,0,0,1-.49.05m0,9c-.59,0-1-.27-1-.37a1.62,1.62,0,0,1,.71-.07c.8,0,1,.4.32.45M6,30.81c-.3-.06.16-.1.56-.05s.31.05,0,.07a3.21,3.21,0,0,1-.57,0M6,20.76c-.18,0-.31,0-.31,0s.13-.06.31-.06a.86.86,0,0,1,.31,0,.91.91,0,0,1-.31.06M5.36,21a2.44,2.44,0,0,1-.62.06,2.11,2.11,0,0,1,1-.25c.49,0,.34.09-.34.19M1.48,22.76c-.25,0-.46,0-.46-.09s.36-.11.71,0,.25.14-.25.13"/></g></g></svg>